M48
; DRILL file {KiCad 9.0.1} date 2025-05-15T13:05:12+0100
; FORMAT={-:-/ absolute / metric / decimal}
; #@! TF.CreationDate,2025-05-15T13:05:12+01:00
; #@! TF.GenerationSoftware,Kicad,Pcbnew,9.0.1
; #@! TF.FileFunction,Plated,1,2,PTH
FMAT,2
METRIC
; #@! TA.AperFunction,Plated,PTH,ViaDrill
T1C0.400
; #@! TA.AperFunction,Plated,PTH,ComponentDrill
T2C0.600
; #@! TA.AperFunction,Plated,PTH,ComponentDrill
T3C0.750
; #@! TA.AperFunction,Plated,PTH,ComponentDrill
T4C0.800
; #@! TA.AperFunction,Plated,PTH,ComponentDrill
T5C0.900
; #@! TA.AperFunction,Plated,PTH,ComponentDrill
T6C1.000
; #@! TA.AperFunction,Plated,PTH,ComponentDrill
T7C1.100
; #@! TA.AperFunction,Plated,PTH,ComponentDrill
T8C1.220
; #@! TA.AperFunction,Plated,PTH,ComponentDrill
T9C1.420
; #@! TA.AperFunction,Plated,PTH,ComponentDrill
T10C1.430
; #@! TA.AperFunction,Plated,PTH,ComponentDrill
T11C1.800
; #@! TA.AperFunction,Plated,PTH,ComponentDrill
T12C2.200
%
G90
G05
T1
X166.0Y-66.2
X173.0Y-112.2
X177.4Y-103.4
X178.0Y-118.4
X179.2Y-107.6
X179.4Y-101.2
X179.4Y-105.6
X180.2Y-76.8
X180.4Y-94.6
X180.8Y-111.6
X181.3Y-123.8
X182.1Y-131.4
X182.4Y-118.4
X184.0Y-76.2
X187.4Y-113.2
X188.0Y-66.2
X191.5Y-107.0
X198.6Y-115.4
X199.4Y-51.6
X200.75Y-145.0
X201.2Y-100.6
X201.7Y-113.5
X201.8Y-106.2
X201.8Y-111.0
X202.555Y-105.155
X202.6Y-102.2
X203.25Y-55.5
X203.4Y-106.2
X204.6Y-97.0
X207.2Y-115.2
X207.75Y-112.75
X208.4Y-101.4
X209.0Y-50.0
X210.2Y-102.0
X210.4Y-105.2
X213.6Y-110.0
X219.4Y-104.8
X224.25Y-107.75
X224.8Y-50.4
X225.75Y-135.25
T2
X172.25Y-116.5
X173.75Y-116.5
X182.1Y-88.8
X183.6Y-88.8
X185.75Y-116.75
X186.595Y-70.8
X187.25Y-116.75
X188.095Y-70.8
X216.045Y-144.75
X216.395Y-109.2
X217.505Y-115.0
X217.545Y-144.75
X217.895Y-109.2
X219.005Y-115.0
T3
X167.21Y-82.25
X168.48Y-82.25
X169.75Y-82.25
T4
X163.0Y-68.0
X163.0Y-73.0
X163.0Y-75.5
X163.0Y-80.5
X181.0Y-53.75
X181.0Y-58.75
X191.068Y-80.25
X191.75Y-111.0
X191.75Y-116.0
X193.568Y-80.25
X195.25Y-111.0
X195.25Y-116.0
X203.7Y-45.6
X208.7Y-45.6
X214.2Y-51.3
X214.2Y-56.3
X214.247Y-68.6
X217.747Y-68.6
T5
X173.9Y-66.1
X176.4Y-61.1
X178.9Y-66.1
X208.13Y-121.79
X208.13Y-124.33
T6
X167.305Y-55.805
X167.305Y-58.345
X167.305Y-60.885
X167.33Y-119.79
X167.33Y-122.33
X167.33Y-124.87
X170.03Y-58.78
X170.03Y-98.78
X170.03Y-138.78
X172.53Y-58.78
X172.53Y-98.78
X172.53Y-138.78
X175.03Y-58.78
X175.03Y-98.78
X175.03Y-138.78
X190.03Y-98.78
X190.03Y-138.78
X192.53Y-98.78
X192.53Y-138.78
X195.03Y-98.78
X195.03Y-138.78
X204.28Y-122.005
X204.28Y-124.545
X210.03Y-98.78
X212.53Y-98.78
X215.03Y-98.78
X217.73Y-119.75
X217.73Y-122.29
X217.73Y-124.83
X217.755Y-55.775
X217.755Y-58.315
X217.755Y-60.855
T7
X204.98Y-142.28
X204.98Y-146.78
X211.48Y-142.28
X211.48Y-146.78
T8
X208.13Y-127.5
X218.53Y-127.5
T9
X208.13Y-130.6
X218.53Y-130.6
T10
X208.13Y-138.9
X218.53Y-138.9
T12
X190.05Y-47.2
X190.05Y-51.8
X190.05Y-56.4
X195.05Y-47.2
X195.05Y-51.8
X195.05Y-56.4
T11
G00X168.13Y-51.93
M15
G01X168.13Y-51.63
M16
G05
G00X168.13Y-91.93
M15
G01X168.13Y-91.63
M16
G05
G00X168.13Y-131.93
M15
G01X168.13Y-131.63
M16
G05
G00X176.93Y-51.93
M15
G01X176.93Y-51.63
M16
G05
G00X176.93Y-91.93
M15
G01X176.93Y-91.63
M16
G05
G00X176.93Y-131.93
M15
G01X176.93Y-131.63
M16
G05
G00X188.13Y-91.93
M15
G01X188.13Y-91.63
M16
G05
G00X188.13Y-131.93
M15
G01X188.13Y-131.63
M16
G05
G00X196.93Y-91.93
M15
G01X196.93Y-91.63
M16
G05
G00X196.93Y-131.93
M15
G01X196.93Y-131.63
M16
G05
G00X208.13Y-91.93
M15
G01X208.13Y-91.63
M16
G05
G00X216.93Y-91.93
M15
G01X216.93Y-91.63
M16
G05
M30
