%TF.GenerationSoftware,KiCad,Pcbnew,(6.0.7)*%
%TF.CreationDate,2025-02-11T17:25:29+00:00*%
%TF.ProjectId,Synclap,53796e63-6c61-4702-9e6b-696361645f70,rev?*%
%TF.SameCoordinates,Original*%
%TF.FileFunction,Legend,Bot*%
%TF.FilePolarity,Positive*%
%FSLAX46Y46*%
G04 Gerber Fmt 4.6, Leading zero omitted, Abs format (unit mm)*
G04 Created by KiCad (PCBNEW (6.0.7)) date 2025-02-11 17:25:29*
%MOMM*%
%LPD*%
G01*
G04 APERTURE LIST*
%ADD10C,0.150000*%
%ADD11C,0.120000*%
G04 APERTURE END LIST*
D10*
%TO.C,J2*%
X204613333Y-119127380D02*
X204613333Y-119841666D01*
X204660952Y-119984523D01*
X204756190Y-120079761D01*
X204899047Y-120127380D01*
X204994285Y-120127380D01*
X204184761Y-119222619D02*
X204137142Y-119175000D01*
X204041904Y-119127380D01*
X203803809Y-119127380D01*
X203708571Y-119175000D01*
X203660952Y-119222619D01*
X203613333Y-119317857D01*
X203613333Y-119413095D01*
X203660952Y-119555952D01*
X204232380Y-120127380D01*
X203613333Y-120127380D01*
%TO.C,J5*%
X163253333Y-52987380D02*
X163253333Y-53701666D01*
X163300952Y-53844523D01*
X163396190Y-53939761D01*
X163539047Y-53987380D01*
X163634285Y-53987380D01*
X162300952Y-52987380D02*
X162777142Y-52987380D01*
X162824761Y-53463571D01*
X162777142Y-53415952D01*
X162681904Y-53368333D01*
X162443809Y-53368333D01*
X162348571Y-53415952D01*
X162300952Y-53463571D01*
X162253333Y-53558809D01*
X162253333Y-53796904D01*
X162300952Y-53892142D01*
X162348571Y-53939761D01*
X162443809Y-53987380D01*
X162681904Y-53987380D01*
X162777142Y-53939761D01*
X162824761Y-53892142D01*
%TO.C,J8*%
X163278333Y-116972380D02*
X163278333Y-117686666D01*
X163325952Y-117829523D01*
X163421190Y-117924761D01*
X163564047Y-117972380D01*
X163659285Y-117972380D01*
X162659285Y-117400952D02*
X162754523Y-117353333D01*
X162802142Y-117305714D01*
X162849761Y-117210476D01*
X162849761Y-117162857D01*
X162802142Y-117067619D01*
X162754523Y-117020000D01*
X162659285Y-116972380D01*
X162468809Y-116972380D01*
X162373571Y-117020000D01*
X162325952Y-117067619D01*
X162278333Y-117162857D01*
X162278333Y-117210476D01*
X162325952Y-117305714D01*
X162373571Y-117353333D01*
X162468809Y-117400952D01*
X162659285Y-117400952D01*
X162754523Y-117448571D01*
X162802142Y-117496190D01*
X162849761Y-117591428D01*
X162849761Y-117781904D01*
X162802142Y-117877142D01*
X162754523Y-117924761D01*
X162659285Y-117972380D01*
X162468809Y-117972380D01*
X162373571Y-117924761D01*
X162325952Y-117877142D01*
X162278333Y-117781904D01*
X162278333Y-117591428D01*
X162325952Y-117496190D01*
X162373571Y-117448571D01*
X162468809Y-117400952D01*
%TO.C,J6*%
X222448333Y-126552380D02*
X222448333Y-127266666D01*
X222495952Y-127409523D01*
X222591190Y-127504761D01*
X222734047Y-127552380D01*
X222829285Y-127552380D01*
X221543571Y-126552380D02*
X221734047Y-126552380D01*
X221829285Y-126600000D01*
X221876904Y-126647619D01*
X221972142Y-126790476D01*
X222019761Y-126980952D01*
X222019761Y-127361904D01*
X221972142Y-127457142D01*
X221924523Y-127504761D01*
X221829285Y-127552380D01*
X221638809Y-127552380D01*
X221543571Y-127504761D01*
X221495952Y-127457142D01*
X221448333Y-127361904D01*
X221448333Y-127123809D01*
X221495952Y-127028571D01*
X221543571Y-126980952D01*
X221638809Y-126933333D01*
X221829285Y-126933333D01*
X221924523Y-126980952D01*
X221972142Y-127028571D01*
X222019761Y-127123809D01*
%TO.C,J1*%
X222473333Y-62577380D02*
X222473333Y-63291666D01*
X222520952Y-63434523D01*
X222616190Y-63529761D01*
X222759047Y-63577380D01*
X222854285Y-63577380D01*
X221473333Y-63577380D02*
X222044761Y-63577380D01*
X221759047Y-63577380D02*
X221759047Y-62577380D01*
X221854285Y-62720238D01*
X221949523Y-62815476D01*
X222044761Y-62863095D01*
D11*
%TO.C,J2*%
X205610000Y-125875000D02*
X202950000Y-125875000D01*
X205610000Y-120675000D02*
X204280000Y-120675000D01*
X205610000Y-122005000D02*
X205610000Y-120675000D01*
X205610000Y-123275000D02*
X202950000Y-123275000D01*
X205610000Y-123275000D02*
X205610000Y-125875000D01*
X202950000Y-123275000D02*
X202950000Y-125875000D01*
%TO.C,J5*%
X163205000Y-54475000D02*
X165865000Y-54475000D01*
X163205000Y-55965000D02*
X157205000Y-55965000D01*
X157205000Y-56185000D02*
X163205000Y-56185000D01*
X157205000Y-55425000D02*
X157205000Y-56185000D01*
X163205000Y-56085000D02*
X157205000Y-56085000D01*
X163205000Y-60505000D02*
X157205000Y-60505000D01*
X165865000Y-62215000D02*
X163205000Y-62215000D01*
X163205000Y-55425000D02*
X157205000Y-55425000D01*
X163205000Y-57965000D02*
X157205000Y-57965000D01*
X166262071Y-58725000D02*
X165865000Y-58725000D01*
X166262071Y-60505000D02*
X165865000Y-60505000D01*
X168575000Y-54535000D02*
X167305000Y-54535000D01*
X163205000Y-62215000D02*
X163205000Y-54475000D01*
X165865000Y-59615000D02*
X163205000Y-59615000D01*
X163205000Y-55845000D02*
X157205000Y-55845000D01*
X157205000Y-61265000D02*
X163205000Y-61265000D01*
X163205000Y-55485000D02*
X157205000Y-55485000D01*
X157205000Y-60505000D02*
X157205000Y-61265000D01*
X165865000Y-57075000D02*
X163205000Y-57075000D01*
X166262071Y-61265000D02*
X165865000Y-61265000D01*
X166195000Y-55425000D02*
X165865000Y-55425000D01*
X163205000Y-55605000D02*
X157205000Y-55605000D01*
X168575000Y-55805000D02*
X168575000Y-54535000D01*
X166262071Y-57965000D02*
X165865000Y-57965000D01*
X157205000Y-57965000D02*
X157205000Y-58725000D01*
X157205000Y-58725000D02*
X163205000Y-58725000D01*
X165865000Y-54475000D02*
X165865000Y-62215000D01*
X166195000Y-56185000D02*
X165865000Y-56185000D01*
X163205000Y-55725000D02*
X157205000Y-55725000D01*
%TO.C,J8*%
X166287071Y-121950000D02*
X165890000Y-121950000D01*
X166287071Y-125250000D02*
X165890000Y-125250000D01*
X163230000Y-119830000D02*
X157230000Y-119830000D01*
X163230000Y-119470000D02*
X157230000Y-119470000D01*
X157230000Y-119410000D02*
X157230000Y-120170000D01*
X165890000Y-123600000D02*
X163230000Y-123600000D01*
X168600000Y-119790000D02*
X168600000Y-118520000D01*
X163230000Y-118460000D02*
X165890000Y-118460000D01*
X166287071Y-124490000D02*
X165890000Y-124490000D01*
X168600000Y-118520000D02*
X167330000Y-118520000D01*
X166220000Y-120170000D02*
X165890000Y-120170000D01*
X163230000Y-119950000D02*
X157230000Y-119950000D01*
X157230000Y-121950000D02*
X157230000Y-122710000D01*
X157230000Y-122710000D02*
X163230000Y-122710000D01*
X157230000Y-124490000D02*
X157230000Y-125250000D01*
X163230000Y-121950000D02*
X157230000Y-121950000D01*
X163230000Y-126200000D02*
X163230000Y-118460000D01*
X166220000Y-119410000D02*
X165890000Y-119410000D01*
X163230000Y-119590000D02*
X157230000Y-119590000D01*
X163230000Y-120070000D02*
X157230000Y-120070000D01*
X166287071Y-122710000D02*
X165890000Y-122710000D01*
X163230000Y-124490000D02*
X157230000Y-124490000D01*
X163230000Y-119710000D02*
X157230000Y-119710000D01*
X165890000Y-118460000D02*
X165890000Y-126200000D01*
X157230000Y-120170000D02*
X163230000Y-120170000D01*
X165890000Y-121060000D02*
X163230000Y-121060000D01*
X165890000Y-126200000D02*
X163230000Y-126200000D01*
X157230000Y-125250000D02*
X163230000Y-125250000D01*
X163230000Y-119410000D02*
X157230000Y-119410000D01*
%TO.C,J6*%
X218772929Y-119370000D02*
X219170000Y-119370000D01*
X221830000Y-124670000D02*
X227830000Y-124670000D01*
X219170000Y-126160000D02*
X219170000Y-118420000D01*
X221830000Y-125150000D02*
X227830000Y-125150000D01*
X221830000Y-125210000D02*
X227830000Y-125210000D01*
X227830000Y-125210000D02*
X227830000Y-124450000D01*
X218772929Y-122670000D02*
X219170000Y-122670000D01*
X221830000Y-124790000D02*
X227830000Y-124790000D01*
X227830000Y-120130000D02*
X227830000Y-119370000D01*
X221830000Y-124550000D02*
X227830000Y-124550000D01*
X216460000Y-126100000D02*
X217730000Y-126100000D01*
X219170000Y-123560000D02*
X221830000Y-123560000D01*
X221830000Y-120130000D02*
X227830000Y-120130000D01*
X218840000Y-125210000D02*
X219170000Y-125210000D01*
X218840000Y-124450000D02*
X219170000Y-124450000D01*
X221830000Y-124910000D02*
X227830000Y-124910000D01*
X227830000Y-121910000D02*
X221830000Y-121910000D01*
X221830000Y-126160000D02*
X219170000Y-126160000D01*
X218772929Y-120130000D02*
X219170000Y-120130000D01*
X227830000Y-122670000D02*
X227830000Y-121910000D01*
X221830000Y-118420000D02*
X221830000Y-126160000D01*
X221830000Y-125030000D02*
X227830000Y-125030000D01*
X218772929Y-121910000D02*
X219170000Y-121910000D01*
X221830000Y-122670000D02*
X227830000Y-122670000D01*
X219170000Y-118420000D02*
X221830000Y-118420000D01*
X227830000Y-119370000D02*
X221830000Y-119370000D01*
X219170000Y-121020000D02*
X221830000Y-121020000D01*
X216460000Y-124830000D02*
X216460000Y-126100000D01*
X227830000Y-124450000D02*
X221830000Y-124450000D01*
%TO.C,J1*%
X219195000Y-57045000D02*
X221855000Y-57045000D01*
X221855000Y-58695000D02*
X227855000Y-58695000D01*
X219195000Y-62185000D02*
X219195000Y-54445000D01*
X227855000Y-55395000D02*
X221855000Y-55395000D01*
X218865000Y-60475000D02*
X219195000Y-60475000D01*
X218865000Y-61235000D02*
X219195000Y-61235000D01*
X216485000Y-60855000D02*
X216485000Y-62125000D01*
X221855000Y-60695000D02*
X227855000Y-60695000D01*
X221855000Y-54445000D02*
X221855000Y-62185000D01*
X221855000Y-61235000D02*
X227855000Y-61235000D01*
X221855000Y-62185000D02*
X219195000Y-62185000D01*
X219195000Y-54445000D02*
X221855000Y-54445000D01*
X221855000Y-61175000D02*
X227855000Y-61175000D01*
X227855000Y-61235000D02*
X227855000Y-60475000D01*
X218797929Y-55395000D02*
X219195000Y-55395000D01*
X227855000Y-57935000D02*
X221855000Y-57935000D01*
X218797929Y-57935000D02*
X219195000Y-57935000D01*
X221855000Y-60815000D02*
X227855000Y-60815000D01*
X218797929Y-56155000D02*
X219195000Y-56155000D01*
X221855000Y-60935000D02*
X227855000Y-60935000D01*
X221855000Y-60575000D02*
X227855000Y-60575000D01*
X221855000Y-61055000D02*
X227855000Y-61055000D01*
X216485000Y-62125000D02*
X217755000Y-62125000D01*
X227855000Y-60475000D02*
X221855000Y-60475000D01*
X218797929Y-58695000D02*
X219195000Y-58695000D01*
X221855000Y-56155000D02*
X227855000Y-56155000D01*
X227855000Y-56155000D02*
X227855000Y-55395000D01*
X227855000Y-58695000D02*
X227855000Y-57935000D01*
X219195000Y-59585000D02*
X221855000Y-59585000D01*
%TD*%
M02*
