%TF.GenerationSoftware,KiCad,Pcbnew,9.0.0*%
%TF.CreationDate,2025-04-03T17:28:53+01:00*%
%TF.ProjectId,Synclap,53796e63-6c61-4702-9e6b-696361645f70,rev?*%
%TF.SameCoordinates,Original*%
%TF.FileFunction,Paste,Top*%
%TF.FilePolarity,Positive*%
%FSLAX46Y46*%
G04 Gerber Fmt 4.6, Leading zero omitted, Abs format (unit mm)*
G04 Created by KiCad (PCBNEW 9.0.0) date 2025-04-03 17:28:53*
%MOMM*%
%LPD*%
G01*
G04 APERTURE LIST*
G04 Aperture macros list*
%AMRoundRect*
0 Rectangle with rounded corners*
0 $1 Rounding radius*
0 $2 $3 $4 $5 $6 $7 $8 $9 X,Y pos of 4 corners*
0 Add a 4 corners polygon primitive as box body*
4,1,4,$2,$3,$4,$5,$6,$7,$8,$9,$2,$3,0*
0 Add four circle primitives for the rounded corners*
1,1,$1+$1,$2,$3*
1,1,$1+$1,$4,$5*
1,1,$1+$1,$6,$7*
1,1,$1+$1,$8,$9*
0 Add four rect primitives between the rounded corners*
20,1,$1+$1,$2,$3,$4,$5,0*
20,1,$1+$1,$4,$5,$6,$7,0*
20,1,$1+$1,$6,$7,$8,$9,0*
20,1,$1+$1,$8,$9,$2,$3,0*%
G04 Aperture macros list end*
%ADD10RoundRect,0.250000X-0.625000X0.312500X-0.625000X-0.312500X0.625000X-0.312500X0.625000X0.312500X0*%
%ADD11RoundRect,0.250000X-0.250000X-0.475000X0.250000X-0.475000X0.250000X0.475000X-0.250000X0.475000X0*%
%ADD12RoundRect,0.250000X0.312500X0.625000X-0.312500X0.625000X-0.312500X-0.625000X0.312500X-0.625000X0*%
%ADD13RoundRect,0.250000X-0.312500X-0.625000X0.312500X-0.625000X0.312500X0.625000X-0.312500X0.625000X0*%
%ADD14RoundRect,0.250000X0.625000X-0.312500X0.625000X0.312500X-0.625000X0.312500X-0.625000X-0.312500X0*%
%ADD15RoundRect,0.150000X-0.825000X-0.150000X0.825000X-0.150000X0.825000X0.150000X-0.825000X0.150000X0*%
%ADD16R,1.700000X1.300000*%
%ADD17RoundRect,0.150000X-0.725000X-0.150000X0.725000X-0.150000X0.725000X0.150000X-0.725000X0.150000X0*%
G04 APERTURE END LIST*
D10*
%TO.C,R42*%
X180400000Y-95937500D03*
X180400000Y-98862500D03*
%TD*%
D11*
%TO.C,C16*%
X199050000Y-66000000D03*
X200950000Y-66000000D03*
%TD*%
D12*
%TO.C,R37*%
X174262500Y-101600000D03*
X171337500Y-101600000D03*
%TD*%
D10*
%TO.C,R4*%
X166250000Y-74787500D03*
X166250000Y-77712500D03*
%TD*%
D13*
%TO.C,R27*%
X185937500Y-113200000D03*
X188862500Y-113200000D03*
%TD*%
%TO.C,R41*%
X171337500Y-112200000D03*
X174262500Y-112200000D03*
%TD*%
D12*
%TO.C,R45*%
X179462500Y-119000000D03*
X176537500Y-119000000D03*
%TD*%
D10*
%TO.C,R9*%
X171250000Y-74787500D03*
X171250000Y-77712500D03*
%TD*%
D12*
%TO.C,R35*%
X174262500Y-106800000D03*
X171337500Y-106800000D03*
%TD*%
D13*
%TO.C,R23*%
X185937500Y-105400000D03*
X188862500Y-105400000D03*
%TD*%
D11*
%TO.C,C17*%
X207050000Y-48250000D03*
X208950000Y-48250000D03*
%TD*%
D14*
%TO.C,R10*%
X171250000Y-70712500D03*
X171250000Y-67787500D03*
%TD*%
D10*
%TO.C,R49*%
X225750000Y-137075000D03*
X225750000Y-140000000D03*
%TD*%
D13*
%TO.C,R48*%
X180937500Y-139600000D03*
X183862500Y-139600000D03*
%TD*%
D15*
%TO.C,U4*%
X201475000Y-50340000D03*
X201475000Y-51610000D03*
X201475000Y-52880000D03*
X201475000Y-54150000D03*
X201475000Y-55420000D03*
X201475000Y-56690000D03*
X201475000Y-57960000D03*
X206425000Y-57960000D03*
X206425000Y-56690000D03*
X206425000Y-55420000D03*
X206425000Y-54150000D03*
X206425000Y-52880000D03*
X206425000Y-51610000D03*
X206425000Y-50340000D03*
%TD*%
D13*
%TO.C,R47*%
X180937500Y-137000000D03*
X183862500Y-137000000D03*
%TD*%
D10*
%TO.C,R16*%
X182000000Y-74787500D03*
X182000000Y-77712500D03*
%TD*%
%TO.C,R24*%
X201000000Y-95800000D03*
X201000000Y-98725000D03*
%TD*%
%TO.C,R18*%
X185000000Y-74787500D03*
X185000000Y-77712500D03*
%TD*%
D11*
%TO.C,C18*%
X181450000Y-116400000D03*
X183350000Y-116400000D03*
%TD*%
D12*
%TO.C,R50*%
X183862500Y-131400000D03*
X180937500Y-131400000D03*
%TD*%
D16*
%TO.C,D2*%
X213800000Y-49100000D03*
X213800000Y-45600000D03*
%TD*%
D13*
%TO.C,R21*%
X185937500Y-108000000D03*
X188862500Y-108000000D03*
%TD*%
D15*
%TO.C,U2*%
X195475000Y-68190000D03*
X195475000Y-69460000D03*
X195475000Y-70730000D03*
X195475000Y-72000000D03*
X195475000Y-73270000D03*
X195475000Y-74540000D03*
X195475000Y-75810000D03*
X200425000Y-75810000D03*
X200425000Y-74540000D03*
X200425000Y-73270000D03*
X200425000Y-72000000D03*
X200425000Y-70730000D03*
X200425000Y-69460000D03*
X200425000Y-68190000D03*
%TD*%
D17*
%TO.C,U5*%
X177425000Y-105155000D03*
X177425000Y-106425000D03*
X177425000Y-107695000D03*
X177425000Y-108965000D03*
X177425000Y-110235000D03*
X177425000Y-111505000D03*
X177425000Y-112775000D03*
X177425000Y-114045000D03*
X182575000Y-114045000D03*
X182575000Y-112775000D03*
X182575000Y-111505000D03*
X182575000Y-110235000D03*
X182575000Y-108965000D03*
X182575000Y-107695000D03*
X182575000Y-106425000D03*
X182575000Y-105155000D03*
%TD*%
D10*
%TO.C,R3*%
X201250000Y-133287500D03*
X201250000Y-136212500D03*
%TD*%
D13*
%TO.C,R17*%
X171337500Y-104200000D03*
X174262500Y-104200000D03*
%TD*%
%TO.C,R46*%
X180937500Y-142400000D03*
X183862500Y-142400000D03*
%TD*%
%TO.C,R38*%
X208937500Y-115200000D03*
X211862500Y-115200000D03*
%TD*%
D12*
%TO.C,R39*%
X207262500Y-101400000D03*
X204337500Y-101400000D03*
%TD*%
D14*
%TO.C,R6*%
X166000000Y-70675000D03*
X166000000Y-67750000D03*
%TD*%
%TO.C,R13*%
X168750000Y-70712500D03*
X168750000Y-67787500D03*
%TD*%
D10*
%TO.C,R28*%
X211200000Y-45537500D03*
X211200000Y-48462500D03*
%TD*%
D13*
%TO.C,R31*%
X208937500Y-105200000D03*
X211862500Y-105200000D03*
%TD*%
D14*
%TO.C,R32*%
X215000000Y-105200000D03*
X215000000Y-102275000D03*
%TD*%
D15*
%TO.C,U1*%
X174025000Y-68190000D03*
X174025000Y-69460000D03*
X174025000Y-70730000D03*
X174025000Y-72000000D03*
X174025000Y-73270000D03*
X174025000Y-74540000D03*
X174025000Y-75810000D03*
X178975000Y-75810000D03*
X178975000Y-74540000D03*
X178975000Y-73270000D03*
X178975000Y-72000000D03*
X178975000Y-70730000D03*
X178975000Y-69460000D03*
X178975000Y-68190000D03*
%TD*%
D13*
%TO.C,R29*%
X208937500Y-112400000D03*
X211862500Y-112400000D03*
%TD*%
D10*
%TO.C,R2*%
X198000000Y-140875000D03*
X198000000Y-143800000D03*
%TD*%
D12*
%TO.C,R40*%
X174262500Y-109400000D03*
X171337500Y-109400000D03*
%TD*%
D10*
%TO.C,R14*%
X188000000Y-74787500D03*
X188000000Y-77712500D03*
%TD*%
%TO.C,R1*%
X160250000Y-77787500D03*
X160250000Y-80712500D03*
%TD*%
%TO.C,R36*%
X211750000Y-121737500D03*
X211750000Y-124662500D03*
%TD*%
%TO.C,R19*%
X183800000Y-95937500D03*
X183800000Y-98862500D03*
%TD*%
%TO.C,R43*%
X166200000Y-105275000D03*
X166200000Y-108200000D03*
%TD*%
D13*
%TO.C,R25*%
X185937500Y-110600000D03*
X188862500Y-110600000D03*
%TD*%
D12*
%TO.C,R20*%
X196725000Y-108000000D03*
X193800000Y-108000000D03*
%TD*%
%TO.C,R22*%
X196662500Y-105400000D03*
X193737500Y-105400000D03*
%TD*%
D14*
%TO.C,R15*%
X181000000Y-51462500D03*
X181000000Y-48537500D03*
%TD*%
D10*
%TO.C,R5*%
X168750000Y-74787500D03*
X168750000Y-77712500D03*
%TD*%
%TO.C,R7*%
X182000000Y-64787500D03*
X182000000Y-67712500D03*
%TD*%
D17*
%TO.C,U3*%
X200025000Y-105155000D03*
X200025000Y-106425000D03*
X200025000Y-107695000D03*
X200025000Y-108965000D03*
X200025000Y-110235000D03*
X200025000Y-111505000D03*
X200025000Y-112775000D03*
X200025000Y-114045000D03*
X205175000Y-114045000D03*
X205175000Y-112775000D03*
X205175000Y-111505000D03*
X205175000Y-110235000D03*
X205175000Y-108965000D03*
X205175000Y-107695000D03*
X205175000Y-106425000D03*
X205175000Y-105155000D03*
%TD*%
D16*
%TO.C,D4*%
X222200000Y-113250000D03*
X222200000Y-116750000D03*
%TD*%
D13*
%TO.C,R12*%
X175287500Y-78250000D03*
X178212500Y-78250000D03*
%TD*%
%TO.C,R26*%
X208937500Y-110000000D03*
X211862500Y-110000000D03*
%TD*%
%TO.C,R44*%
X176537500Y-116400000D03*
X179462500Y-116400000D03*
%TD*%
%TO.C,R30*%
X208937500Y-107600000D03*
X211862500Y-107600000D03*
%TD*%
D14*
%TO.C,R33*%
X211200000Y-53462500D03*
X211200000Y-50537500D03*
%TD*%
D16*
%TO.C,D1*%
X201250000Y-127250000D03*
X201250000Y-130750000D03*
%TD*%
D10*
%TO.C,R11*%
X184600000Y-64787500D03*
X184600000Y-67712500D03*
%TD*%
%TO.C,R8*%
X182000000Y-69787500D03*
X182000000Y-72712500D03*
%TD*%
D13*
%TO.C,R34*%
X218737500Y-51000000D03*
X221662500Y-51000000D03*
%TD*%
D12*
%TO.C,R51*%
X183862500Y-134200000D03*
X180937500Y-134200000D03*
%TD*%
M02*
