M48
; DRILL file {KiCad 9.0.0} date 2025-04-03T17:29:01+0100
; FORMAT={-:-/ absolute / inch / decimal}
; #@! TF.CreationDate,2025-04-03T17:29:01+01:00
; #@! TF.GenerationSoftware,Kicad,Pcbnew,9.0.0
; #@! TF.FileFunction,Plated,1,2,PTH
FMAT,2
INCH
; #@! TA.AperFunction,Plated,PTH,ViaDrill
T1C0.0157
; #@! TA.AperFunction,Plated,PTH,ComponentDrill
T2C0.0236
; #@! TA.AperFunction,Plated,PTH,ComponentDrill
T3C0.0295
; #@! TA.AperFunction,Plated,PTH,ComponentDrill
T4C0.0315
; #@! TA.AperFunction,Plated,PTH,ComponentDrill
T5C0.0354
; #@! TA.AperFunction,Plated,PTH,ComponentDrill
T6C0.0394
; #@! TA.AperFunction,Plated,PTH,ComponentDrill
T7C0.0433
; #@! TA.AperFunction,Plated,PTH,ComponentDrill
T8C0.0480
; #@! TA.AperFunction,Plated,PTH,ComponentDrill
T9C0.0559
; #@! TA.AperFunction,Plated,PTH,ComponentDrill
T10C0.0563
; #@! TA.AperFunction,Plated,PTH,ComponentDrill
T11C0.0709
; #@! TA.AperFunction,Plated,PTH,ComponentDrill
T12C0.0866
%
G90
G05
T1
X6.5354Y-2.6063
X6.811Y-4.4173
X6.9843Y-4.0709
X7.0079Y-4.6614
X7.0551Y-4.2362
X7.063Y-3.9843
X7.063Y-4.1575
X7.0945Y-3.0236
X7.1024Y-3.7244
X7.1181Y-4.3937
X7.1358Y-4.874
X7.1811Y-4.6614
X7.1949Y-4.9705
X7.2441Y-3.0
X7.378Y-4.4567
X7.4016Y-2.6063
X7.6476Y-4.7539
X7.8189Y-4.5433
X7.8504Y-2.0315
X7.9035Y-5.7087
X7.9213Y-3.9606
X7.9449Y-4.1811
X7.9449Y-4.3701
X7.9746Y-4.14
X7.9764Y-4.0236
X8.002Y-2.185
X8.0079Y-4.1811
X8.0551Y-3.8189
X8.1575Y-4.5354
X8.2047Y-3.9921
X8.2283Y-1.9685
X8.2756Y-4.0157
X8.2835Y-4.1417
X8.4094Y-4.3307
X8.6378Y-4.126
X8.8287Y-4.2421
X8.8504Y-1.9843
X8.8878Y-5.3248
T2
X6.7557Y-4.6378
X6.8148Y-4.6378
X7.1693Y-3.4961
X7.2283Y-3.4961
X7.3463Y-2.7874
X7.3585Y-4.6378
X7.4053Y-2.7874
X7.4175Y-4.6378
X8.2659Y-2.4311
X8.325Y-2.4311
X8.5057Y-5.6988
X8.5195Y-4.2992
X8.5632Y-4.5276
X8.5648Y-5.6988
X8.5785Y-4.2992
X8.6222Y-4.5276
T3
X6.5831Y-3.2382
X6.6331Y-3.2382
X6.6831Y-3.2382
T4
X6.4173Y-2.6772
X6.4173Y-2.874
X6.4173Y-2.9724
X6.4173Y-3.1693
X7.126Y-2.1161
X7.126Y-2.313
X7.5223Y-3.1594
X7.6208Y-3.1594
X7.6457Y-4.3976
X7.6457Y-4.5945
X7.7638Y-4.3976
X7.7638Y-4.5945
X8.0197Y-1.7953
X8.2165Y-1.7953
X8.4331Y-2.0197
X8.4331Y-2.2165
T5
X6.8465Y-2.6024
X6.9449Y-2.4055
X7.0433Y-2.6024
X8.1941Y-4.7949
X8.1941Y-4.8949
T6
X6.5868Y-2.197
X6.5868Y-2.297
X6.5868Y-2.397
X6.5878Y-4.7161
X6.5878Y-4.8161
X6.5878Y-4.9161
X6.6941Y-2.3142
X6.6941Y-3.889
X6.6941Y-5.4638
X6.7925Y-2.3142
X6.7925Y-3.889
X6.7925Y-5.4638
X6.8909Y-2.3142
X6.8909Y-3.889
X6.8909Y-5.4638
X7.4815Y-3.889
X7.4815Y-5.4638
X7.5799Y-3.889
X7.5799Y-5.4638
X7.6783Y-3.889
X7.6783Y-5.4638
X8.0425Y-4.8033
X8.0425Y-4.9033
X8.2689Y-3.889
X8.3673Y-3.889
X8.4657Y-3.889
X8.572Y-4.7146
X8.572Y-4.8146
X8.572Y-4.9146
X8.573Y-2.1959
X8.573Y-2.2959
X8.573Y-2.3959
T7
X8.0701Y-5.6016
X8.0701Y-5.7787
X8.326Y-5.6016
X8.326Y-5.7787
T8
X8.1941Y-5.0197
X8.6035Y-5.0197
T9
X8.1941Y-5.1417
X8.6035Y-5.1417
T10
X8.1941Y-5.4685
X8.6035Y-5.4685
T12
X7.4823Y-1.8583
X7.4823Y-2.0394
X7.4823Y-2.2205
X7.6791Y-1.8583
X7.6791Y-2.0394
X7.6791Y-2.2205
T6
G00X8.4264Y-2.7456
M15
G01X8.4264Y-2.6668
M16
G05
G00X8.5839Y-2.5212
M15
G01X8.5051Y-2.5212
M16
G05
G00X8.6626Y-2.7456
M15
G01X8.6626Y-2.6668
M16
G05
T11
G00X6.6193Y-2.0445
M15
G01X6.6193Y-2.0327
M16
G05
G00X6.6193Y-3.6193
M15
G01X6.6193Y-3.6075
M16
G05
G00X6.6193Y-5.1941
M15
G01X6.6193Y-5.1823
M16
G05
G00X6.9657Y-2.0445
M15
G01X6.9657Y-2.0327
M16
G05
G00X6.9657Y-3.6193
M15
G01X6.9657Y-3.6075
M16
G05
G00X6.9657Y-5.1941
M15
G01X6.9657Y-5.1823
M16
G05
G00X7.4067Y-3.6193
M15
G01X7.4067Y-3.6075
M16
G05
G00X7.4067Y-5.1941
M15
G01X7.4067Y-5.1823
M16
G05
G00X7.7531Y-3.6193
M15
G01X7.7531Y-3.6075
M16
G05
G00X7.7531Y-5.1941
M15
G01X7.7531Y-5.1823
M16
G05
G00X8.1941Y-3.6193
M15
G01X8.1941Y-3.6075
M16
G05
G00X8.5406Y-3.6193
M15
G01X8.5406Y-3.6075
M16
G05
M30
