%TF.GenerationSoftware,KiCad,Pcbnew,9.0.0*%
%TF.CreationDate,2025-04-21T14:10:05+01:00*%
%TF.ProjectId,Synclap,53796e63-6c61-4702-9e6b-696361645f70,rev?*%
%TF.SameCoordinates,Original*%
%TF.FileFunction,Legend,Bot*%
%TF.FilePolarity,Positive*%
%FSLAX46Y46*%
G04 Gerber Fmt 4.6, Leading zero omitted, Abs format (unit mm)*
G04 Created by KiCad (PCBNEW 9.0.0) date 2025-04-21 14:10:05*
%MOMM*%
%LPD*%
G01*
G04 APERTURE LIST*
%ADD10C,0.150000*%
%ADD11C,0.120000*%
G04 APERTURE END LIST*
D10*
X204613333Y-119129819D02*
X204613333Y-119844104D01*
X204613333Y-119844104D02*
X204660952Y-119986961D01*
X204660952Y-119986961D02*
X204756190Y-120082200D01*
X204756190Y-120082200D02*
X204899047Y-120129819D01*
X204899047Y-120129819D02*
X204994285Y-120129819D01*
X204184761Y-119225057D02*
X204137142Y-119177438D01*
X204137142Y-119177438D02*
X204041904Y-119129819D01*
X204041904Y-119129819D02*
X203803809Y-119129819D01*
X203803809Y-119129819D02*
X203708571Y-119177438D01*
X203708571Y-119177438D02*
X203660952Y-119225057D01*
X203660952Y-119225057D02*
X203613333Y-119320295D01*
X203613333Y-119320295D02*
X203613333Y-119415533D01*
X203613333Y-119415533D02*
X203660952Y-119558390D01*
X203660952Y-119558390D02*
X204232380Y-120129819D01*
X204232380Y-120129819D02*
X203613333Y-120129819D01*
X163253333Y-52989819D02*
X163253333Y-53704104D01*
X163253333Y-53704104D02*
X163300952Y-53846961D01*
X163300952Y-53846961D02*
X163396190Y-53942200D01*
X163396190Y-53942200D02*
X163539047Y-53989819D01*
X163539047Y-53989819D02*
X163634285Y-53989819D01*
X162300952Y-52989819D02*
X162777142Y-52989819D01*
X162777142Y-52989819D02*
X162824761Y-53466009D01*
X162824761Y-53466009D02*
X162777142Y-53418390D01*
X162777142Y-53418390D02*
X162681904Y-53370771D01*
X162681904Y-53370771D02*
X162443809Y-53370771D01*
X162443809Y-53370771D02*
X162348571Y-53418390D01*
X162348571Y-53418390D02*
X162300952Y-53466009D01*
X162300952Y-53466009D02*
X162253333Y-53561247D01*
X162253333Y-53561247D02*
X162253333Y-53799342D01*
X162253333Y-53799342D02*
X162300952Y-53894580D01*
X162300952Y-53894580D02*
X162348571Y-53942200D01*
X162348571Y-53942200D02*
X162443809Y-53989819D01*
X162443809Y-53989819D02*
X162681904Y-53989819D01*
X162681904Y-53989819D02*
X162777142Y-53942200D01*
X162777142Y-53942200D02*
X162824761Y-53894580D01*
X163278333Y-116974819D02*
X163278333Y-117689104D01*
X163278333Y-117689104D02*
X163325952Y-117831961D01*
X163325952Y-117831961D02*
X163421190Y-117927200D01*
X163421190Y-117927200D02*
X163564047Y-117974819D01*
X163564047Y-117974819D02*
X163659285Y-117974819D01*
X162659285Y-117403390D02*
X162754523Y-117355771D01*
X162754523Y-117355771D02*
X162802142Y-117308152D01*
X162802142Y-117308152D02*
X162849761Y-117212914D01*
X162849761Y-117212914D02*
X162849761Y-117165295D01*
X162849761Y-117165295D02*
X162802142Y-117070057D01*
X162802142Y-117070057D02*
X162754523Y-117022438D01*
X162754523Y-117022438D02*
X162659285Y-116974819D01*
X162659285Y-116974819D02*
X162468809Y-116974819D01*
X162468809Y-116974819D02*
X162373571Y-117022438D01*
X162373571Y-117022438D02*
X162325952Y-117070057D01*
X162325952Y-117070057D02*
X162278333Y-117165295D01*
X162278333Y-117165295D02*
X162278333Y-117212914D01*
X162278333Y-117212914D02*
X162325952Y-117308152D01*
X162325952Y-117308152D02*
X162373571Y-117355771D01*
X162373571Y-117355771D02*
X162468809Y-117403390D01*
X162468809Y-117403390D02*
X162659285Y-117403390D01*
X162659285Y-117403390D02*
X162754523Y-117451009D01*
X162754523Y-117451009D02*
X162802142Y-117498628D01*
X162802142Y-117498628D02*
X162849761Y-117593866D01*
X162849761Y-117593866D02*
X162849761Y-117784342D01*
X162849761Y-117784342D02*
X162802142Y-117879580D01*
X162802142Y-117879580D02*
X162754523Y-117927200D01*
X162754523Y-117927200D02*
X162659285Y-117974819D01*
X162659285Y-117974819D02*
X162468809Y-117974819D01*
X162468809Y-117974819D02*
X162373571Y-117927200D01*
X162373571Y-117927200D02*
X162325952Y-117879580D01*
X162325952Y-117879580D02*
X162278333Y-117784342D01*
X162278333Y-117784342D02*
X162278333Y-117593866D01*
X162278333Y-117593866D02*
X162325952Y-117498628D01*
X162325952Y-117498628D02*
X162373571Y-117451009D01*
X162373571Y-117451009D02*
X162468809Y-117403390D01*
X222448333Y-126554819D02*
X222448333Y-127269104D01*
X222448333Y-127269104D02*
X222495952Y-127411961D01*
X222495952Y-127411961D02*
X222591190Y-127507200D01*
X222591190Y-127507200D02*
X222734047Y-127554819D01*
X222734047Y-127554819D02*
X222829285Y-127554819D01*
X221543571Y-126554819D02*
X221734047Y-126554819D01*
X221734047Y-126554819D02*
X221829285Y-126602438D01*
X221829285Y-126602438D02*
X221876904Y-126650057D01*
X221876904Y-126650057D02*
X221972142Y-126792914D01*
X221972142Y-126792914D02*
X222019761Y-126983390D01*
X222019761Y-126983390D02*
X222019761Y-127364342D01*
X222019761Y-127364342D02*
X221972142Y-127459580D01*
X221972142Y-127459580D02*
X221924523Y-127507200D01*
X221924523Y-127507200D02*
X221829285Y-127554819D01*
X221829285Y-127554819D02*
X221638809Y-127554819D01*
X221638809Y-127554819D02*
X221543571Y-127507200D01*
X221543571Y-127507200D02*
X221495952Y-127459580D01*
X221495952Y-127459580D02*
X221448333Y-127364342D01*
X221448333Y-127364342D02*
X221448333Y-127126247D01*
X221448333Y-127126247D02*
X221495952Y-127031009D01*
X221495952Y-127031009D02*
X221543571Y-126983390D01*
X221543571Y-126983390D02*
X221638809Y-126935771D01*
X221638809Y-126935771D02*
X221829285Y-126935771D01*
X221829285Y-126935771D02*
X221924523Y-126983390D01*
X221924523Y-126983390D02*
X221972142Y-127031009D01*
X221972142Y-127031009D02*
X222019761Y-127126247D01*
X222473333Y-62579819D02*
X222473333Y-63294104D01*
X222473333Y-63294104D02*
X222520952Y-63436961D01*
X222520952Y-63436961D02*
X222616190Y-63532200D01*
X222616190Y-63532200D02*
X222759047Y-63579819D01*
X222759047Y-63579819D02*
X222854285Y-63579819D01*
X221473333Y-63579819D02*
X222044761Y-63579819D01*
X221759047Y-63579819D02*
X221759047Y-62579819D01*
X221759047Y-62579819D02*
X221854285Y-62722676D01*
X221854285Y-62722676D02*
X221949523Y-62817914D01*
X221949523Y-62817914D02*
X222044761Y-62865533D01*
D11*
%TO.C,J2*%
X202950000Y-123275000D02*
X202950000Y-125875000D01*
X205610000Y-120675000D02*
X204280000Y-120675000D01*
X205610000Y-122005000D02*
X205610000Y-120675000D01*
X205610000Y-123275000D02*
X202950000Y-123275000D01*
X205610000Y-123275000D02*
X205610000Y-125875000D01*
X205610000Y-125875000D02*
X202950000Y-125875000D01*
%TO.C,J5*%
X157205000Y-55425000D02*
X157205000Y-56185000D01*
X157205000Y-56185000D02*
X163205000Y-56185000D01*
X157205000Y-57965000D02*
X157205000Y-58725000D01*
X157205000Y-58725000D02*
X163205000Y-58725000D01*
X157205000Y-60505000D02*
X157205000Y-61265000D01*
X157205000Y-61265000D02*
X163205000Y-61265000D01*
X163205000Y-54475000D02*
X165865000Y-54475000D01*
X163205000Y-55425000D02*
X157205000Y-55425000D01*
X163205000Y-55485000D02*
X157205000Y-55485000D01*
X163205000Y-55605000D02*
X157205000Y-55605000D01*
X163205000Y-55725000D02*
X157205000Y-55725000D01*
X163205000Y-55845000D02*
X157205000Y-55845000D01*
X163205000Y-55965000D02*
X157205000Y-55965000D01*
X163205000Y-56085000D02*
X157205000Y-56085000D01*
X163205000Y-57965000D02*
X157205000Y-57965000D01*
X163205000Y-60505000D02*
X157205000Y-60505000D01*
X163205000Y-62215000D02*
X163205000Y-54475000D01*
X165865000Y-54475000D02*
X165865000Y-62215000D01*
X165865000Y-57075000D02*
X163205000Y-57075000D01*
X165865000Y-59615000D02*
X163205000Y-59615000D01*
X165865000Y-62215000D02*
X163205000Y-62215000D01*
X166195000Y-55425000D02*
X165865000Y-55425000D01*
X166195000Y-56185000D02*
X165865000Y-56185000D01*
X166262071Y-57965000D02*
X165865000Y-57965000D01*
X166262071Y-58725000D02*
X165865000Y-58725000D01*
X166262071Y-60505000D02*
X165865000Y-60505000D01*
X166262071Y-61265000D02*
X165865000Y-61265000D01*
X168575000Y-54535000D02*
X167305000Y-54535000D01*
X168575000Y-55805000D02*
X168575000Y-54535000D01*
%TO.C,J8*%
X157230000Y-119410000D02*
X157230000Y-120170000D01*
X157230000Y-120170000D02*
X163230000Y-120170000D01*
X157230000Y-121950000D02*
X157230000Y-122710000D01*
X157230000Y-122710000D02*
X163230000Y-122710000D01*
X157230000Y-124490000D02*
X157230000Y-125250000D01*
X157230000Y-125250000D02*
X163230000Y-125250000D01*
X163230000Y-118460000D02*
X165890000Y-118460000D01*
X163230000Y-119410000D02*
X157230000Y-119410000D01*
X163230000Y-119470000D02*
X157230000Y-119470000D01*
X163230000Y-119590000D02*
X157230000Y-119590000D01*
X163230000Y-119710000D02*
X157230000Y-119710000D01*
X163230000Y-119830000D02*
X157230000Y-119830000D01*
X163230000Y-119950000D02*
X157230000Y-119950000D01*
X163230000Y-120070000D02*
X157230000Y-120070000D01*
X163230000Y-121950000D02*
X157230000Y-121950000D01*
X163230000Y-124490000D02*
X157230000Y-124490000D01*
X163230000Y-126200000D02*
X163230000Y-118460000D01*
X165890000Y-118460000D02*
X165890000Y-126200000D01*
X165890000Y-121060000D02*
X163230000Y-121060000D01*
X165890000Y-123600000D02*
X163230000Y-123600000D01*
X165890000Y-126200000D02*
X163230000Y-126200000D01*
X166220000Y-119410000D02*
X165890000Y-119410000D01*
X166220000Y-120170000D02*
X165890000Y-120170000D01*
X166287071Y-121950000D02*
X165890000Y-121950000D01*
X166287071Y-122710000D02*
X165890000Y-122710000D01*
X166287071Y-124490000D02*
X165890000Y-124490000D01*
X166287071Y-125250000D02*
X165890000Y-125250000D01*
X168600000Y-118520000D02*
X167330000Y-118520000D01*
X168600000Y-119790000D02*
X168600000Y-118520000D01*
%TO.C,J6*%
X216460000Y-124830000D02*
X216460000Y-126100000D01*
X216460000Y-126100000D02*
X217730000Y-126100000D01*
X218772929Y-119370000D02*
X219170000Y-119370000D01*
X218772929Y-120130000D02*
X219170000Y-120130000D01*
X218772929Y-121910000D02*
X219170000Y-121910000D01*
X218772929Y-122670000D02*
X219170000Y-122670000D01*
X218840000Y-124450000D02*
X219170000Y-124450000D01*
X218840000Y-125210000D02*
X219170000Y-125210000D01*
X219170000Y-118420000D02*
X221830000Y-118420000D01*
X219170000Y-121020000D02*
X221830000Y-121020000D01*
X219170000Y-123560000D02*
X221830000Y-123560000D01*
X219170000Y-126160000D02*
X219170000Y-118420000D01*
X221830000Y-118420000D02*
X221830000Y-126160000D01*
X221830000Y-120130000D02*
X227830000Y-120130000D01*
X221830000Y-122670000D02*
X227830000Y-122670000D01*
X221830000Y-124550000D02*
X227830000Y-124550000D01*
X221830000Y-124670000D02*
X227830000Y-124670000D01*
X221830000Y-124790000D02*
X227830000Y-124790000D01*
X221830000Y-124910000D02*
X227830000Y-124910000D01*
X221830000Y-125030000D02*
X227830000Y-125030000D01*
X221830000Y-125150000D02*
X227830000Y-125150000D01*
X221830000Y-125210000D02*
X227830000Y-125210000D01*
X221830000Y-126160000D02*
X219170000Y-126160000D01*
X227830000Y-119370000D02*
X221830000Y-119370000D01*
X227830000Y-120130000D02*
X227830000Y-119370000D01*
X227830000Y-121910000D02*
X221830000Y-121910000D01*
X227830000Y-122670000D02*
X227830000Y-121910000D01*
X227830000Y-124450000D02*
X221830000Y-124450000D01*
X227830000Y-125210000D02*
X227830000Y-124450000D01*
%TO.C,J1*%
X216485000Y-60855000D02*
X216485000Y-62125000D01*
X216485000Y-62125000D02*
X217755000Y-62125000D01*
X218797929Y-55395000D02*
X219195000Y-55395000D01*
X218797929Y-56155000D02*
X219195000Y-56155000D01*
X218797929Y-57935000D02*
X219195000Y-57935000D01*
X218797929Y-58695000D02*
X219195000Y-58695000D01*
X218865000Y-60475000D02*
X219195000Y-60475000D01*
X218865000Y-61235000D02*
X219195000Y-61235000D01*
X219195000Y-54445000D02*
X221855000Y-54445000D01*
X219195000Y-57045000D02*
X221855000Y-57045000D01*
X219195000Y-59585000D02*
X221855000Y-59585000D01*
X219195000Y-62185000D02*
X219195000Y-54445000D01*
X221855000Y-54445000D02*
X221855000Y-62185000D01*
X221855000Y-56155000D02*
X227855000Y-56155000D01*
X221855000Y-58695000D02*
X227855000Y-58695000D01*
X221855000Y-60575000D02*
X227855000Y-60575000D01*
X221855000Y-60695000D02*
X227855000Y-60695000D01*
X221855000Y-60815000D02*
X227855000Y-60815000D01*
X221855000Y-60935000D02*
X227855000Y-60935000D01*
X221855000Y-61055000D02*
X227855000Y-61055000D01*
X221855000Y-61175000D02*
X227855000Y-61175000D01*
X221855000Y-61235000D02*
X227855000Y-61235000D01*
X221855000Y-62185000D02*
X219195000Y-62185000D01*
X227855000Y-55395000D02*
X221855000Y-55395000D01*
X227855000Y-56155000D02*
X227855000Y-55395000D01*
X227855000Y-57935000D02*
X221855000Y-57935000D01*
X227855000Y-58695000D02*
X227855000Y-57935000D01*
X227855000Y-60475000D02*
X221855000Y-60475000D01*
X227855000Y-61235000D02*
X227855000Y-60475000D01*
%TD*%
M02*
