%TF.GenerationSoftware,KiCad,Pcbnew,9.0.0*%
%TF.CreationDate,2025-05-14T19:32:50+01:00*%
%TF.ProjectId,Synbal,53796e62-616c-42e6-9b69-6361645f7063,rev?*%
%TF.SameCoordinates,Original*%
%TF.FileFunction,Soldermask,Top*%
%TF.FilePolarity,Negative*%
%FSLAX46Y46*%
G04 Gerber Fmt 4.6, Leading zero omitted, Abs format (unit mm)*
G04 Created by KiCad (PCBNEW 9.0.0) date 2025-05-14 19:32:50*
%MOMM*%
%LPD*%
G01*
G04 APERTURE LIST*
G04 Aperture macros list*
%AMRoundRect*
0 Rectangle with rounded corners*
0 $1 Rounding radius*
0 $2 $3 $4 $5 $6 $7 $8 $9 X,Y pos of 4 corners*
0 Add a 4 corners polygon primitive as box body*
4,1,4,$2,$3,$4,$5,$6,$7,$8,$9,$2,$3,0*
0 Add four circle primitives for the rounded corners*
1,1,$1+$1,$2,$3*
1,1,$1+$1,$4,$5*
1,1,$1+$1,$6,$7*
1,1,$1+$1,$8,$9*
0 Add four rect primitives between the rounded corners*
20,1,$1+$1,$2,$3,$4,$5,0*
20,1,$1+$1,$4,$5,$6,$7,0*
20,1,$1+$1,$6,$7,$8,$9,0*
20,1,$1+$1,$8,$9,$2,$3,0*%
G04 Aperture macros list end*
%ADD10RoundRect,0.250000X-0.625000X0.312500X-0.625000X-0.312500X0.625000X-0.312500X0.625000X0.312500X0*%
%ADD11R,1.200000X1.200000*%
%ADD12C,1.200000*%
%ADD13RoundRect,0.150000X-0.825000X-0.150000X0.825000X-0.150000X0.825000X0.150000X-0.825000X0.150000X0*%
%ADD14RoundRect,0.250000X0.312500X0.625000X-0.312500X0.625000X-0.312500X-0.625000X0.312500X-0.625000X0*%
%ADD15R,1.800000X1.800000*%
%ADD16C,1.800000*%
%ADD17RoundRect,0.750000X0.750000X-1.250000X0.750000X1.250000X-0.750000X1.250000X-0.750000X-1.250000X0*%
%ADD18C,1.620000*%
%ADD19RoundRect,0.250000X-0.312500X-0.625000X0.312500X-0.625000X0.312500X0.625000X-0.312500X0.625000X0*%
%ADD20C,3.200000*%
%ADD21C,1.600000*%
%ADD22RoundRect,0.250000X-0.250000X-0.475000X0.250000X-0.475000X0.250000X0.475000X-0.250000X0.475000X0*%
%ADD23R,1.050000X1.500000*%
%ADD24O,1.050000X1.500000*%
%ADD25RoundRect,0.250000X0.625000X-0.312500X0.625000X0.312500X-0.625000X0.312500X-0.625000X-0.312500X0*%
%ADD26C,2.800000*%
%ADD27RoundRect,0.875000X-1.125000X-0.875000X1.125000X-0.875000X1.125000X0.875000X-1.125000X0.875000X0*%
%ADD28R,1.600000X1.600000*%
%ADD29R,1.930000X1.830000*%
%ADD30C,2.130000*%
%ADD31R,2.700000X1.500000*%
%ADD32R,1.500000X2.700000*%
%ADD33C,2.000000*%
%ADD34R,1.700000X1.700000*%
%ADD35O,1.700000X1.700000*%
G04 APERTURE END LIST*
D10*
%TO.C,R20*%
X166000000Y-81037500D03*
X166000000Y-83962500D03*
%TD*%
D11*
%TO.C,C2*%
X178750000Y-84000000D03*
D12*
X178750000Y-82500000D03*
%TD*%
D13*
%TO.C,U5*%
X156025000Y-109305000D03*
X156025000Y-110575000D03*
X156025000Y-111845000D03*
X156025000Y-113115000D03*
X156025000Y-114385000D03*
X156025000Y-115655000D03*
X156025000Y-116925000D03*
X156025000Y-118195000D03*
X160975000Y-118195000D03*
X160975000Y-116925000D03*
X160975000Y-115655000D03*
X160975000Y-114385000D03*
X160975000Y-113115000D03*
X160975000Y-111845000D03*
X160975000Y-110575000D03*
X160975000Y-109305000D03*
%TD*%
D14*
%TO.C,R3*%
X125630000Y-69440000D03*
X122705000Y-69440000D03*
%TD*%
%TO.C,R40*%
X144462500Y-118000000D03*
X141537500Y-118000000D03*
%TD*%
D15*
%TO.C,RV7*%
X126250000Y-105000000D03*
D16*
X128750000Y-105000000D03*
X131250000Y-105000000D03*
D17*
X124350000Y-98000000D03*
X133150000Y-98000000D03*
%TD*%
D15*
%TO.C,RV3*%
X166250000Y-105000000D03*
D16*
X168750000Y-105000000D03*
X171250000Y-105000000D03*
D17*
X164350000Y-98000000D03*
X173150000Y-98000000D03*
%TD*%
D14*
%TO.C,R21*%
X139462500Y-110750000D03*
X136537500Y-110750000D03*
%TD*%
D18*
%TO.C,RV2*%
X158000000Y-147750000D03*
X153000000Y-150250000D03*
X158000000Y-152750000D03*
%TD*%
D10*
%TO.C,R24*%
X174750000Y-86825000D03*
X174750000Y-89750000D03*
%TD*%
D19*
%TO.C,R36*%
X136537500Y-118000000D03*
X139462500Y-118000000D03*
%TD*%
D14*
%TO.C,R16*%
X140500000Y-97750000D03*
X137575000Y-97750000D03*
%TD*%
D20*
%TO.C,H2*%
X117000000Y-51250000D03*
%TD*%
D14*
%TO.C,R6*%
X139630000Y-76190000D03*
X136705000Y-76190000D03*
%TD*%
D13*
%TO.C,U6*%
X140525000Y-121055000D03*
X140525000Y-122325000D03*
X140525000Y-123595000D03*
X140525000Y-124865000D03*
X140525000Y-126135000D03*
X140525000Y-127405000D03*
X140525000Y-128675000D03*
X140525000Y-129945000D03*
X145475000Y-129945000D03*
X145475000Y-128675000D03*
X145475000Y-127405000D03*
X145475000Y-126135000D03*
X145475000Y-124865000D03*
X145475000Y-123595000D03*
X145475000Y-122325000D03*
X145475000Y-121055000D03*
%TD*%
D10*
%TO.C,R15*%
X181250000Y-136325000D03*
X181250000Y-139250000D03*
%TD*%
D19*
%TO.C,R37*%
X157287500Y-58500000D03*
X160212500Y-58500000D03*
%TD*%
D20*
%TO.C,H3*%
X180500000Y-151750000D03*
%TD*%
D19*
%TO.C,R9*%
X136537500Y-62500000D03*
X139462500Y-62500000D03*
%TD*%
%TO.C,R17*%
X150000000Y-84250000D03*
X152925000Y-84250000D03*
%TD*%
D14*
%TO.C,R13*%
X139425000Y-87000000D03*
X136500000Y-87000000D03*
%TD*%
D21*
%TO.C,C8*%
X147250000Y-69250000D03*
X142250000Y-69250000D03*
%TD*%
D14*
%TO.C,R29*%
X158500000Y-107350000D03*
X155575000Y-107350000D03*
%TD*%
%TO.C,R26*%
X171462500Y-110250000D03*
X168537500Y-110250000D03*
%TD*%
D21*
%TO.C,C16*%
X155250000Y-120750000D03*
X150250000Y-120750000D03*
%TD*%
D22*
%TO.C,C24*%
X159500000Y-121500000D03*
X161400000Y-121500000D03*
%TD*%
D10*
%TO.C,R25*%
X168500000Y-118787500D03*
X168500000Y-121712500D03*
%TD*%
D19*
%TO.C,R27*%
X145037500Y-113750000D03*
X147962500Y-113750000D03*
%TD*%
D20*
%TO.C,H4*%
X180500000Y-51250000D03*
%TD*%
D14*
%TO.C,R28*%
X153212500Y-114500000D03*
X150287500Y-114500000D03*
%TD*%
D19*
%TO.C,R4*%
X122705000Y-72870000D03*
X125630000Y-72870000D03*
%TD*%
D23*
%TO.C,Q2*%
X140000000Y-101600000D03*
D24*
X138730000Y-101600000D03*
X137460000Y-101600000D03*
%TD*%
D14*
%TO.C,R32*%
X160212500Y-61750000D03*
X157287500Y-61750000D03*
%TD*%
%TO.C,R12*%
X140462500Y-152500000D03*
X137537500Y-152500000D03*
%TD*%
D25*
%TO.C,R2*%
X174250000Y-83962500D03*
X174250000Y-81037500D03*
%TD*%
D10*
%TO.C,R1*%
X171500000Y-81037500D03*
X171500000Y-83962500D03*
%TD*%
D21*
%TO.C,C11*%
X142250000Y-80000000D03*
X147250000Y-80000000D03*
%TD*%
D26*
%TO.C,GND*%
X117500000Y-82500000D03*
%TD*%
D21*
%TO.C,C7*%
X147250000Y-72750000D03*
X142250000Y-72750000D03*
%TD*%
D20*
%TO.C,H1*%
X117000000Y-151750000D03*
%TD*%
D19*
%TO.C,R45*%
X137575000Y-146500000D03*
X140500000Y-146500000D03*
%TD*%
D14*
%TO.C,R19*%
X153712500Y-69750000D03*
X150787500Y-69750000D03*
%TD*%
D25*
%TO.C,R35*%
X137000000Y-125462500D03*
X137000000Y-122537500D03*
%TD*%
D11*
%TO.C,C15*%
X132644888Y-128050000D03*
D12*
X134144888Y-128050000D03*
%TD*%
D14*
%TO.C,R23*%
X139462500Y-108000000D03*
X136537500Y-108000000D03*
%TD*%
D15*
%TO.C,RV5*%
X146250000Y-105000000D03*
D16*
X148750000Y-105000000D03*
X151250000Y-105000000D03*
D17*
X144350000Y-98000000D03*
X153150000Y-98000000D03*
%TD*%
D26*
%TO.C,RMOD*%
X139500000Y-92250000D03*
%TD*%
D27*
%TO.C,SW2*%
X126250000Y-113300000D03*
X131250000Y-113300000D03*
X126250000Y-117900000D03*
X131250000Y-117900000D03*
X126250000Y-122500000D03*
X131250000Y-122500000D03*
%TD*%
D28*
%TO.C,C1*%
X173500000Y-74200000D03*
D21*
X177000000Y-74200000D03*
%TD*%
D10*
%TO.C,R39*%
X126750000Y-126825000D03*
X126750000Y-129750000D03*
%TD*%
D14*
%TO.C,R34*%
X160212500Y-55250000D03*
X157287500Y-55250000D03*
%TD*%
D15*
%TO.C,RV8*%
X126250000Y-145000000D03*
D16*
X128750000Y-145000000D03*
X131250000Y-145000000D03*
D17*
X124350000Y-138000000D03*
X133150000Y-138000000D03*
%TD*%
D14*
%TO.C,R14*%
X152962500Y-87250000D03*
X150037500Y-87250000D03*
%TD*%
D19*
%TO.C,R46*%
X137575000Y-143750000D03*
X140500000Y-143750000D03*
%TD*%
D21*
%TO.C,C12*%
X159000000Y-99750000D03*
X159000000Y-104750000D03*
%TD*%
D15*
%TO.C,RV1*%
X126250000Y-65000000D03*
D16*
X128750000Y-65000000D03*
X131250000Y-65000000D03*
D17*
X124350000Y-58000000D03*
X133150000Y-58000000D03*
%TD*%
D15*
%TO.C,RV4*%
X146250000Y-65000000D03*
D16*
X148750000Y-65000000D03*
X151250000Y-65000000D03*
D17*
X144350000Y-58000000D03*
X153150000Y-58000000D03*
%TD*%
D14*
%TO.C,R5*%
X125630000Y-76440000D03*
X122705000Y-76440000D03*
%TD*%
D15*
%TO.C,RV9*%
X146250000Y-145000000D03*
D16*
X148750000Y-145000000D03*
X151250000Y-145000000D03*
D17*
X144350000Y-138000000D03*
X153150000Y-138000000D03*
%TD*%
D11*
%TO.C,C13*%
X153250000Y-74750000D03*
D12*
X151750000Y-74750000D03*
%TD*%
D19*
%TO.C,R10*%
X136537500Y-81500000D03*
X139462500Y-81500000D03*
%TD*%
D14*
%TO.C,R7*%
X139630000Y-72690000D03*
X136705000Y-72690000D03*
%TD*%
D26*
%TO.C,NOISE*%
X158750000Y-96000000D03*
%TD*%
D11*
%TO.C,C9*%
X137794888Y-57250000D03*
D12*
X139294888Y-57250000D03*
%TD*%
D14*
%TO.C,R41*%
X153250000Y-117250000D03*
X150325000Y-117250000D03*
%TD*%
D21*
%TO.C,C5*%
X115000000Y-76500000D03*
X120000000Y-76500000D03*
%TD*%
D11*
%TO.C,C18*%
X173000000Y-151705113D03*
D12*
X173000000Y-150205113D03*
%TD*%
D19*
%TO.C,R8*%
X136705000Y-69440000D03*
X139630000Y-69440000D03*
%TD*%
D14*
%TO.C,R11*%
X139462500Y-84250000D03*
X136537500Y-84250000D03*
%TD*%
D22*
%TO.C,C21*%
X136550000Y-65750000D03*
X138450000Y-65750000D03*
%TD*%
D25*
%TO.C,R31*%
X129250000Y-129712500D03*
X129250000Y-126787500D03*
%TD*%
D19*
%TO.C,R47*%
X137575000Y-149500000D03*
X140500000Y-149500000D03*
%TD*%
D13*
%TO.C,U1*%
X158275000Y-77440000D03*
X158275000Y-78710000D03*
X158275000Y-79980000D03*
X158275000Y-81250000D03*
X158275000Y-82520000D03*
X158275000Y-83790000D03*
X158275000Y-85060000D03*
X163225000Y-85060000D03*
X163225000Y-83790000D03*
X163225000Y-82520000D03*
X163225000Y-81250000D03*
X163225000Y-79980000D03*
X163225000Y-78710000D03*
X163225000Y-77440000D03*
%TD*%
D14*
%TO.C,R49*%
X140462500Y-138200000D03*
X137537500Y-138200000D03*
%TD*%
D13*
%TO.C,U3*%
X128525000Y-79690000D03*
X128525000Y-80960000D03*
X128525000Y-82230000D03*
X128525000Y-83500000D03*
X128525000Y-84770000D03*
X128525000Y-86040000D03*
X128525000Y-87310000D03*
X133475000Y-87310000D03*
X133475000Y-86040000D03*
X133475000Y-84770000D03*
X133475000Y-83500000D03*
X133475000Y-82230000D03*
X133475000Y-80960000D03*
X133475000Y-79690000D03*
%TD*%
%TO.C,U2*%
X128692500Y-69130000D03*
X128692500Y-70400000D03*
X128692500Y-71670000D03*
X128692500Y-72940000D03*
X128692500Y-74210000D03*
X128692500Y-75480000D03*
X128692500Y-76750000D03*
X133642500Y-76750000D03*
X133642500Y-75480000D03*
X133642500Y-74210000D03*
X133642500Y-72940000D03*
X133642500Y-71670000D03*
X133642500Y-70400000D03*
X133642500Y-69130000D03*
%TD*%
D15*
%TO.C,D2*%
X164250000Y-130750000D03*
D16*
X164250000Y-128210000D03*
%TD*%
D26*
%TO.C,+6v*%
X144750000Y-87250000D03*
%TD*%
D13*
%TO.C,U4*%
X142525000Y-107845000D03*
X142525000Y-109115000D03*
X142525000Y-110385000D03*
X142525000Y-111655000D03*
X147475000Y-111655000D03*
X147475000Y-110385000D03*
X147475000Y-109115000D03*
X147475000Y-107845000D03*
%TD*%
D14*
%TO.C,R30*%
X153212500Y-111750000D03*
X150287500Y-111750000D03*
%TD*%
D21*
%TO.C,C3*%
X115000000Y-69500000D03*
X120000000Y-69500000D03*
%TD*%
D10*
%TO.C,R44*%
X163500000Y-118787500D03*
X163500000Y-121712500D03*
%TD*%
D22*
%TO.C,C23*%
X160050000Y-75000000D03*
X161950000Y-75000000D03*
%TD*%
D15*
%TO.C,RV6*%
X166250000Y-65000000D03*
D16*
X168750000Y-65000000D03*
X171250000Y-65000000D03*
D17*
X164350000Y-58000000D03*
X173150000Y-58000000D03*
%TD*%
D21*
%TO.C,C10*%
X157750000Y-145000000D03*
X157750000Y-140000000D03*
%TD*%
D19*
%TO.C,R38*%
X157287500Y-65000000D03*
X160212500Y-65000000D03*
%TD*%
D22*
%TO.C,C22*%
X136550000Y-78750000D03*
X138450000Y-78750000D03*
%TD*%
D19*
%TO.C,R48*%
X137575000Y-141000000D03*
X140500000Y-141000000D03*
%TD*%
%TO.C,R33*%
X150287500Y-109000000D03*
X153212500Y-109000000D03*
%TD*%
D10*
%TO.C,R50*%
X181250000Y-142537500D03*
X181250000Y-145462500D03*
%TD*%
D29*
%TO.C,J2*%
X164250000Y-133720000D03*
D30*
X164250000Y-145120000D03*
X164250000Y-136820000D03*
%TD*%
D21*
%TO.C,C6*%
X147250000Y-76250000D03*
X142250000Y-76250000D03*
%TD*%
D10*
%TO.C,R18*%
X168750000Y-81075000D03*
X168750000Y-84000000D03*
%TD*%
D19*
%TO.C,R42*%
X163537500Y-113000000D03*
X166462500Y-113000000D03*
%TD*%
%TO.C,R43*%
X163537500Y-110250000D03*
X166462500Y-110250000D03*
%TD*%
D21*
%TO.C,C17*%
X164000000Y-116000000D03*
X169000000Y-116000000D03*
%TD*%
D29*
%TO.C,J3*%
X174750000Y-133720000D03*
D30*
X174750000Y-145120000D03*
X174750000Y-136820000D03*
%TD*%
D31*
%TO.C,D3*%
X157500000Y-132600000D03*
X157500000Y-137400000D03*
%TD*%
D21*
%TO.C,C14*%
X137250000Y-114750000D03*
X142250000Y-114750000D03*
%TD*%
%TO.C,C4*%
X115000000Y-73000000D03*
X120000000Y-73000000D03*
%TD*%
D32*
%TO.C,D1*%
X155000000Y-80000000D03*
X150200000Y-80000000D03*
%TD*%
D25*
%TO.C,R22*%
X166000000Y-78962500D03*
X166000000Y-76037500D03*
%TD*%
D33*
%TO.C,SW1*%
X161000000Y-148500000D03*
X167500000Y-148500000D03*
X161000000Y-153000000D03*
X167500000Y-153000000D03*
%TD*%
D34*
%TO.C,J6*%
X123500000Y-125975000D03*
D35*
X123500000Y-128515000D03*
X123500000Y-131055000D03*
%TD*%
D34*
%TO.C,J5*%
X174000000Y-67000000D03*
D35*
X174000000Y-64460000D03*
X174000000Y-61920000D03*
%TD*%
D34*
%TO.C,J8*%
X168250000Y-130975000D03*
D35*
X168250000Y-133515000D03*
%TD*%
D34*
%TO.C,J4*%
X123500000Y-61975000D03*
D35*
X123500000Y-64515000D03*
X123500000Y-67055000D03*
%TD*%
D34*
%TO.C,J7*%
X174000000Y-131025000D03*
D35*
X174000000Y-128485000D03*
X174000000Y-125945000D03*
%TD*%
M02*
