%TF.GenerationSoftware,KiCad,Pcbnew,9.0.0*%
%TF.CreationDate,2025-05-14T19:32:50+01:00*%
%TF.ProjectId,Synbal,53796e62-616c-42e6-9b69-6361645f7063,rev?*%
%TF.SameCoordinates,Original*%
%TF.FileFunction,Legend,Bot*%
%TF.FilePolarity,Positive*%
%FSLAX46Y46*%
G04 Gerber Fmt 4.6, Leading zero omitted, Abs format (unit mm)*
G04 Created by KiCad (PCBNEW 9.0.0) date 2025-05-14 19:32:50*
%MOMM*%
%LPD*%
G01*
G04 APERTURE LIST*
%ADD10C,0.150000*%
%ADD11C,0.120000*%
G04 APERTURE END LIST*
D10*
X119448333Y-123159819D02*
X119448333Y-123874104D01*
X119448333Y-123874104D02*
X119495952Y-124016961D01*
X119495952Y-124016961D02*
X119591190Y-124112200D01*
X119591190Y-124112200D02*
X119734047Y-124159819D01*
X119734047Y-124159819D02*
X119829285Y-124159819D01*
X118543571Y-123159819D02*
X118734047Y-123159819D01*
X118734047Y-123159819D02*
X118829285Y-123207438D01*
X118829285Y-123207438D02*
X118876904Y-123255057D01*
X118876904Y-123255057D02*
X118972142Y-123397914D01*
X118972142Y-123397914D02*
X119019761Y-123588390D01*
X119019761Y-123588390D02*
X119019761Y-123969342D01*
X119019761Y-123969342D02*
X118972142Y-124064580D01*
X118972142Y-124064580D02*
X118924523Y-124112200D01*
X118924523Y-124112200D02*
X118829285Y-124159819D01*
X118829285Y-124159819D02*
X118638809Y-124159819D01*
X118638809Y-124159819D02*
X118543571Y-124112200D01*
X118543571Y-124112200D02*
X118495952Y-124064580D01*
X118495952Y-124064580D02*
X118448333Y-123969342D01*
X118448333Y-123969342D02*
X118448333Y-123731247D01*
X118448333Y-123731247D02*
X118495952Y-123636009D01*
X118495952Y-123636009D02*
X118543571Y-123588390D01*
X118543571Y-123588390D02*
X118638809Y-123540771D01*
X118638809Y-123540771D02*
X118829285Y-123540771D01*
X118829285Y-123540771D02*
X118924523Y-123588390D01*
X118924523Y-123588390D02*
X118972142Y-123636009D01*
X118972142Y-123636009D02*
X119019761Y-123731247D01*
X178718333Y-68724819D02*
X178718333Y-69439104D01*
X178718333Y-69439104D02*
X178765952Y-69581961D01*
X178765952Y-69581961D02*
X178861190Y-69677200D01*
X178861190Y-69677200D02*
X179004047Y-69724819D01*
X179004047Y-69724819D02*
X179099285Y-69724819D01*
X177765952Y-68724819D02*
X178242142Y-68724819D01*
X178242142Y-68724819D02*
X178289761Y-69201009D01*
X178289761Y-69201009D02*
X178242142Y-69153390D01*
X178242142Y-69153390D02*
X178146904Y-69105771D01*
X178146904Y-69105771D02*
X177908809Y-69105771D01*
X177908809Y-69105771D02*
X177813571Y-69153390D01*
X177813571Y-69153390D02*
X177765952Y-69201009D01*
X177765952Y-69201009D02*
X177718333Y-69296247D01*
X177718333Y-69296247D02*
X177718333Y-69534342D01*
X177718333Y-69534342D02*
X177765952Y-69629580D01*
X177765952Y-69629580D02*
X177813571Y-69677200D01*
X177813571Y-69677200D02*
X177908809Y-69724819D01*
X177908809Y-69724819D02*
X178146904Y-69724819D01*
X178146904Y-69724819D02*
X178242142Y-69677200D01*
X178242142Y-69677200D02*
X178289761Y-69629580D01*
X168583333Y-128099819D02*
X168583333Y-128814104D01*
X168583333Y-128814104D02*
X168630952Y-128956961D01*
X168630952Y-128956961D02*
X168726190Y-129052200D01*
X168726190Y-129052200D02*
X168869047Y-129099819D01*
X168869047Y-129099819D02*
X168964285Y-129099819D01*
X167964285Y-128528390D02*
X168059523Y-128480771D01*
X168059523Y-128480771D02*
X168107142Y-128433152D01*
X168107142Y-128433152D02*
X168154761Y-128337914D01*
X168154761Y-128337914D02*
X168154761Y-128290295D01*
X168154761Y-128290295D02*
X168107142Y-128195057D01*
X168107142Y-128195057D02*
X168059523Y-128147438D01*
X168059523Y-128147438D02*
X167964285Y-128099819D01*
X167964285Y-128099819D02*
X167773809Y-128099819D01*
X167773809Y-128099819D02*
X167678571Y-128147438D01*
X167678571Y-128147438D02*
X167630952Y-128195057D01*
X167630952Y-128195057D02*
X167583333Y-128290295D01*
X167583333Y-128290295D02*
X167583333Y-128337914D01*
X167583333Y-128337914D02*
X167630952Y-128433152D01*
X167630952Y-128433152D02*
X167678571Y-128480771D01*
X167678571Y-128480771D02*
X167773809Y-128528390D01*
X167773809Y-128528390D02*
X167964285Y-128528390D01*
X167964285Y-128528390D02*
X168059523Y-128576009D01*
X168059523Y-128576009D02*
X168107142Y-128623628D01*
X168107142Y-128623628D02*
X168154761Y-128718866D01*
X168154761Y-128718866D02*
X168154761Y-128909342D01*
X168154761Y-128909342D02*
X168107142Y-129004580D01*
X168107142Y-129004580D02*
X168059523Y-129052200D01*
X168059523Y-129052200D02*
X167964285Y-129099819D01*
X167964285Y-129099819D02*
X167773809Y-129099819D01*
X167773809Y-129099819D02*
X167678571Y-129052200D01*
X167678571Y-129052200D02*
X167630952Y-129004580D01*
X167630952Y-129004580D02*
X167583333Y-128909342D01*
X167583333Y-128909342D02*
X167583333Y-128718866D01*
X167583333Y-128718866D02*
X167630952Y-128623628D01*
X167630952Y-128623628D02*
X167678571Y-128576009D01*
X167678571Y-128576009D02*
X167773809Y-128528390D01*
X119448333Y-59159819D02*
X119448333Y-59874104D01*
X119448333Y-59874104D02*
X119495952Y-60016961D01*
X119495952Y-60016961D02*
X119591190Y-60112200D01*
X119591190Y-60112200D02*
X119734047Y-60159819D01*
X119734047Y-60159819D02*
X119829285Y-60159819D01*
X118543571Y-59493152D02*
X118543571Y-60159819D01*
X118781666Y-59112200D02*
X119019761Y-59826485D01*
X119019761Y-59826485D02*
X118400714Y-59826485D01*
X178718333Y-132749819D02*
X178718333Y-133464104D01*
X178718333Y-133464104D02*
X178765952Y-133606961D01*
X178765952Y-133606961D02*
X178861190Y-133702200D01*
X178861190Y-133702200D02*
X179004047Y-133749819D01*
X179004047Y-133749819D02*
X179099285Y-133749819D01*
X178337380Y-132749819D02*
X177670714Y-132749819D01*
X177670714Y-132749819D02*
X178099285Y-133749819D01*
D11*
%TO.C,J6*%
X113400000Y-125595000D02*
X113400000Y-126355000D01*
X113400000Y-126355000D02*
X119400000Y-126355000D01*
X113400000Y-128135000D02*
X113400000Y-128895000D01*
X113400000Y-128895000D02*
X119400000Y-128895000D01*
X113400000Y-130675000D02*
X113400000Y-131435000D01*
X113400000Y-131435000D02*
X119400000Y-131435000D01*
X119400000Y-124645000D02*
X122060000Y-124645000D01*
X119400000Y-125595000D02*
X113400000Y-125595000D01*
X119400000Y-125655000D02*
X113400000Y-125655000D01*
X119400000Y-125775000D02*
X113400000Y-125775000D01*
X119400000Y-125895000D02*
X113400000Y-125895000D01*
X119400000Y-126015000D02*
X113400000Y-126015000D01*
X119400000Y-126135000D02*
X113400000Y-126135000D01*
X119400000Y-126255000D02*
X113400000Y-126255000D01*
X119400000Y-128135000D02*
X113400000Y-128135000D01*
X119400000Y-130675000D02*
X113400000Y-130675000D01*
X119400000Y-132385000D02*
X119400000Y-124645000D01*
X122060000Y-124645000D02*
X122060000Y-132385000D01*
X122060000Y-127245000D02*
X119400000Y-127245000D01*
X122060000Y-129785000D02*
X119400000Y-129785000D01*
X122060000Y-132385000D02*
X119400000Y-132385000D01*
X122390000Y-125595000D02*
X122060000Y-125595000D01*
X122390000Y-126355000D02*
X122060000Y-126355000D01*
X122457071Y-128135000D02*
X122060000Y-128135000D01*
X122457071Y-128895000D02*
X122060000Y-128895000D01*
X122457071Y-130675000D02*
X122060000Y-130675000D01*
X122457071Y-131435000D02*
X122060000Y-131435000D01*
X124770000Y-124705000D02*
X123500000Y-124705000D01*
X124770000Y-125975000D02*
X124770000Y-124705000D01*
%TO.C,J5*%
X172730000Y-67000000D02*
X172730000Y-68270000D01*
X172730000Y-68270000D02*
X174000000Y-68270000D01*
X175042929Y-61540000D02*
X175440000Y-61540000D01*
X175042929Y-62300000D02*
X175440000Y-62300000D01*
X175042929Y-64080000D02*
X175440000Y-64080000D01*
X175042929Y-64840000D02*
X175440000Y-64840000D01*
X175110000Y-66620000D02*
X175440000Y-66620000D01*
X175110000Y-67380000D02*
X175440000Y-67380000D01*
X175440000Y-60590000D02*
X178100000Y-60590000D01*
X175440000Y-63190000D02*
X178100000Y-63190000D01*
X175440000Y-65730000D02*
X178100000Y-65730000D01*
X175440000Y-68330000D02*
X175440000Y-60590000D01*
X178100000Y-60590000D02*
X178100000Y-68330000D01*
X178100000Y-62300000D02*
X184100000Y-62300000D01*
X178100000Y-64840000D02*
X184100000Y-64840000D01*
X178100000Y-66720000D02*
X184100000Y-66720000D01*
X178100000Y-66840000D02*
X184100000Y-66840000D01*
X178100000Y-66960000D02*
X184100000Y-66960000D01*
X178100000Y-67080000D02*
X184100000Y-67080000D01*
X178100000Y-67200000D02*
X184100000Y-67200000D01*
X178100000Y-67320000D02*
X184100000Y-67320000D01*
X178100000Y-67380000D02*
X184100000Y-67380000D01*
X178100000Y-68330000D02*
X175440000Y-68330000D01*
X184100000Y-61540000D02*
X178100000Y-61540000D01*
X184100000Y-62300000D02*
X184100000Y-61540000D01*
X184100000Y-64080000D02*
X178100000Y-64080000D01*
X184100000Y-64840000D02*
X184100000Y-64080000D01*
X184100000Y-66620000D02*
X178100000Y-66620000D01*
X184100000Y-67380000D02*
X184100000Y-66620000D01*
%TO.C,J8*%
X166920000Y-132245000D02*
X166920000Y-134845000D01*
X169580000Y-129645000D02*
X168250000Y-129645000D01*
X169580000Y-130975000D02*
X169580000Y-129645000D01*
X169580000Y-132245000D02*
X166920000Y-132245000D01*
X169580000Y-132245000D02*
X169580000Y-134845000D01*
X169580000Y-134845000D02*
X166920000Y-134845000D01*
%TO.C,J4*%
X113400000Y-61595000D02*
X113400000Y-62355000D01*
X113400000Y-62355000D02*
X119400000Y-62355000D01*
X113400000Y-64135000D02*
X113400000Y-64895000D01*
X113400000Y-64895000D02*
X119400000Y-64895000D01*
X113400000Y-66675000D02*
X113400000Y-67435000D01*
X113400000Y-67435000D02*
X119400000Y-67435000D01*
X119400000Y-60645000D02*
X122060000Y-60645000D01*
X119400000Y-61595000D02*
X113400000Y-61595000D01*
X119400000Y-61655000D02*
X113400000Y-61655000D01*
X119400000Y-61775000D02*
X113400000Y-61775000D01*
X119400000Y-61895000D02*
X113400000Y-61895000D01*
X119400000Y-62015000D02*
X113400000Y-62015000D01*
X119400000Y-62135000D02*
X113400000Y-62135000D01*
X119400000Y-62255000D02*
X113400000Y-62255000D01*
X119400000Y-64135000D02*
X113400000Y-64135000D01*
X119400000Y-66675000D02*
X113400000Y-66675000D01*
X119400000Y-68385000D02*
X119400000Y-60645000D01*
X122060000Y-60645000D02*
X122060000Y-68385000D01*
X122060000Y-63245000D02*
X119400000Y-63245000D01*
X122060000Y-65785000D02*
X119400000Y-65785000D01*
X122060000Y-68385000D02*
X119400000Y-68385000D01*
X122390000Y-61595000D02*
X122060000Y-61595000D01*
X122390000Y-62355000D02*
X122060000Y-62355000D01*
X122457071Y-64135000D02*
X122060000Y-64135000D01*
X122457071Y-64895000D02*
X122060000Y-64895000D01*
X122457071Y-66675000D02*
X122060000Y-66675000D01*
X122457071Y-67435000D02*
X122060000Y-67435000D01*
X124770000Y-60705000D02*
X123500000Y-60705000D01*
X124770000Y-61975000D02*
X124770000Y-60705000D01*
%TO.C,J7*%
X172730000Y-131025000D02*
X172730000Y-132295000D01*
X172730000Y-132295000D02*
X174000000Y-132295000D01*
X175042929Y-125565000D02*
X175440000Y-125565000D01*
X175042929Y-126325000D02*
X175440000Y-126325000D01*
X175042929Y-128105000D02*
X175440000Y-128105000D01*
X175042929Y-128865000D02*
X175440000Y-128865000D01*
X175110000Y-130645000D02*
X175440000Y-130645000D01*
X175110000Y-131405000D02*
X175440000Y-131405000D01*
X175440000Y-124615000D02*
X178100000Y-124615000D01*
X175440000Y-127215000D02*
X178100000Y-127215000D01*
X175440000Y-129755000D02*
X178100000Y-129755000D01*
X175440000Y-132355000D02*
X175440000Y-124615000D01*
X178100000Y-124615000D02*
X178100000Y-132355000D01*
X178100000Y-126325000D02*
X184100000Y-126325000D01*
X178100000Y-128865000D02*
X184100000Y-128865000D01*
X178100000Y-130745000D02*
X184100000Y-130745000D01*
X178100000Y-130865000D02*
X184100000Y-130865000D01*
X178100000Y-130985000D02*
X184100000Y-130985000D01*
X178100000Y-131105000D02*
X184100000Y-131105000D01*
X178100000Y-131225000D02*
X184100000Y-131225000D01*
X178100000Y-131345000D02*
X184100000Y-131345000D01*
X178100000Y-131405000D02*
X184100000Y-131405000D01*
X178100000Y-132355000D02*
X175440000Y-132355000D01*
X184100000Y-125565000D02*
X178100000Y-125565000D01*
X184100000Y-126325000D02*
X184100000Y-125565000D01*
X184100000Y-128105000D02*
X178100000Y-128105000D01*
X184100000Y-128865000D02*
X184100000Y-128105000D01*
X184100000Y-130645000D02*
X178100000Y-130645000D01*
X184100000Y-131405000D02*
X184100000Y-130645000D01*
%TD*%
M02*
