%TF.GenerationSoftware,KiCad,Pcbnew,9.0.0*%
%TF.CreationDate,2025-04-21T16:10:40+01:00*%
%TF.ProjectId,Synbal,53796e62-616c-42e6-9b69-6361645f7063,rev?*%
%TF.SameCoordinates,Original*%
%TF.FileFunction,Soldermask,Bot*%
%TF.FilePolarity,Negative*%
%FSLAX46Y46*%
G04 Gerber Fmt 4.6, Leading zero omitted, Abs format (unit mm)*
G04 Created by KiCad (PCBNEW 9.0.0) date 2025-04-21 16:10:40*
%MOMM*%
%LPD*%
G01*
G04 APERTURE LIST*
G04 Aperture macros list*
%AMRoundRect*
0 Rectangle with rounded corners*
0 $1 Rounding radius*
0 $2 $3 $4 $5 $6 $7 $8 $9 X,Y pos of 4 corners*
0 Add a 4 corners polygon primitive as box body*
4,1,4,$2,$3,$4,$5,$6,$7,$8,$9,$2,$3,0*
0 Add four circle primitives for the rounded corners*
1,1,$1+$1,$2,$3*
1,1,$1+$1,$4,$5*
1,1,$1+$1,$6,$7*
1,1,$1+$1,$8,$9*
0 Add four rect primitives between the rounded corners*
20,1,$1+$1,$2,$3,$4,$5,0*
20,1,$1+$1,$4,$5,$6,$7,0*
20,1,$1+$1,$6,$7,$8,$9,0*
20,1,$1+$1,$8,$9,$2,$3,0*%
G04 Aperture macros list end*
%ADD10R,1.200000X1.200000*%
%ADD11C,1.200000*%
%ADD12R,1.800000X1.800000*%
%ADD13C,1.800000*%
%ADD14RoundRect,0.750000X0.750000X-1.250000X0.750000X1.250000X-0.750000X1.250000X-0.750000X-1.250000X0*%
%ADD15C,1.620000*%
%ADD16C,3.200000*%
%ADD17C,1.600000*%
%ADD18R,1.050000X1.500000*%
%ADD19O,1.050000X1.500000*%
%ADD20R,3.500000X3.500000*%
%ADD21RoundRect,0.750000X0.750000X1.000000X-0.750000X1.000000X-0.750000X-1.000000X0.750000X-1.000000X0*%
%ADD22RoundRect,0.875000X0.875000X0.875000X-0.875000X0.875000X-0.875000X-0.875000X0.875000X-0.875000X0*%
%ADD23C,2.800000*%
%ADD24RoundRect,0.875000X-1.125000X-0.875000X1.125000X-0.875000X1.125000X0.875000X-1.125000X0.875000X0*%
%ADD25R,1.930000X1.830000*%
%ADD26C,2.130000*%
%ADD27C,2.000000*%
%ADD28R,1.700000X1.700000*%
%ADD29O,1.700000X1.700000*%
G04 APERTURE END LIST*
D10*
%TO.C,C2*%
X178750000Y-84000000D03*
D11*
X178750000Y-82500000D03*
%TD*%
D12*
%TO.C,RV7*%
X126250000Y-105000000D03*
D13*
X128750000Y-105000000D03*
X131250000Y-105000000D03*
D14*
X124350000Y-98000000D03*
X133150000Y-98000000D03*
%TD*%
D12*
%TO.C,RV3*%
X166250000Y-105000000D03*
D13*
X168750000Y-105000000D03*
X171250000Y-105000000D03*
D14*
X164350000Y-98000000D03*
X173150000Y-98000000D03*
%TD*%
D15*
%TO.C,RV2*%
X158000000Y-147750000D03*
X153000000Y-150250000D03*
X158000000Y-152750000D03*
%TD*%
D16*
%TO.C,H2*%
X117000000Y-51250000D03*
%TD*%
%TO.C,H3*%
X180500000Y-151750000D03*
%TD*%
D17*
%TO.C,C8*%
X147250000Y-69250000D03*
X142250000Y-69250000D03*
%TD*%
%TO.C,C16*%
X155250000Y-120750000D03*
X150250000Y-120750000D03*
%TD*%
D16*
%TO.C,H4*%
X180500000Y-51250000D03*
%TD*%
D18*
%TO.C,Q2*%
X140000000Y-101600000D03*
D19*
X138730000Y-101600000D03*
X137460000Y-101600000D03*
%TD*%
D20*
%TO.C,J1*%
X170250000Y-75000000D03*
D21*
X176250000Y-75000000D03*
D22*
X173250000Y-70300000D03*
%TD*%
D17*
%TO.C,C11*%
X142250000Y-80000000D03*
X147250000Y-80000000D03*
%TD*%
D23*
%TO.C,TP1*%
X117500000Y-82500000D03*
%TD*%
D17*
%TO.C,C7*%
X147250000Y-72750000D03*
X142250000Y-72750000D03*
%TD*%
D16*
%TO.C,H1*%
X117000000Y-151750000D03*
%TD*%
D10*
%TO.C,C19*%
X139750000Y-134250000D03*
D11*
X138250000Y-134250000D03*
%TD*%
D10*
%TO.C,C15*%
X132644888Y-128050000D03*
D11*
X134144888Y-128050000D03*
%TD*%
D12*
%TO.C,RV5*%
X146250000Y-105000000D03*
D13*
X148750000Y-105000000D03*
X151250000Y-105000000D03*
D14*
X144350000Y-98000000D03*
X153150000Y-98000000D03*
%TD*%
D23*
%TO.C,TP3*%
X139500000Y-92250000D03*
%TD*%
D24*
%TO.C,SW2*%
X126250000Y-113300000D03*
X131250000Y-113300000D03*
X126250000Y-117900000D03*
X131250000Y-117900000D03*
X126250000Y-122500000D03*
X131250000Y-122500000D03*
%TD*%
D10*
%TO.C,C1*%
X164067621Y-70250000D03*
D11*
X165567621Y-70250000D03*
%TD*%
D12*
%TO.C,RV8*%
X126250000Y-145000000D03*
D13*
X128750000Y-145000000D03*
X131250000Y-145000000D03*
D14*
X124350000Y-138000000D03*
X133150000Y-138000000D03*
%TD*%
D17*
%TO.C,C12*%
X159000000Y-99750000D03*
X159000000Y-104750000D03*
%TD*%
D12*
%TO.C,RV1*%
X126250000Y-65000000D03*
D13*
X128750000Y-65000000D03*
X131250000Y-65000000D03*
D14*
X124350000Y-58000000D03*
X133150000Y-58000000D03*
%TD*%
D12*
%TO.C,RV4*%
X146250000Y-65000000D03*
D13*
X148750000Y-65000000D03*
X151250000Y-65000000D03*
D14*
X144350000Y-58000000D03*
X153150000Y-58000000D03*
%TD*%
D12*
%TO.C,RV9*%
X146250000Y-145000000D03*
D13*
X148750000Y-145000000D03*
X151250000Y-145000000D03*
D14*
X144350000Y-138000000D03*
X153150000Y-138000000D03*
%TD*%
D10*
%TO.C,C13*%
X153250000Y-74750000D03*
D11*
X151750000Y-74750000D03*
%TD*%
D10*
%TO.C,C20*%
X166000000Y-123750000D03*
D11*
X166000000Y-125250000D03*
%TD*%
D23*
%TO.C,TP4*%
X158750000Y-96000000D03*
%TD*%
D10*
%TO.C,C9*%
X137794888Y-57250000D03*
D11*
X139294888Y-57250000D03*
%TD*%
D17*
%TO.C,C5*%
X115000000Y-76500000D03*
X120000000Y-76500000D03*
%TD*%
D10*
%TO.C,C18*%
X173000000Y-151705113D03*
D11*
X173000000Y-150205113D03*
%TD*%
D12*
%TO.C,D2*%
X164250000Y-130750000D03*
D13*
X164250000Y-128210000D03*
%TD*%
D23*
%TO.C,TP2*%
X144750000Y-87250000D03*
%TD*%
D17*
%TO.C,C3*%
X115000000Y-69500000D03*
X120000000Y-69500000D03*
%TD*%
D12*
%TO.C,RV6*%
X166250000Y-65000000D03*
D13*
X168750000Y-65000000D03*
X171250000Y-65000000D03*
D14*
X164350000Y-58000000D03*
X173150000Y-58000000D03*
%TD*%
D17*
%TO.C,C10*%
X157750000Y-145000000D03*
X157750000Y-140000000D03*
%TD*%
D25*
%TO.C,J2*%
X164250000Y-133720000D03*
D26*
X164250000Y-145120000D03*
X164250000Y-136820000D03*
%TD*%
D17*
%TO.C,C6*%
X147250000Y-76250000D03*
X142250000Y-76250000D03*
%TD*%
%TO.C,C17*%
X164000000Y-116000000D03*
X169000000Y-116000000D03*
%TD*%
D25*
%TO.C,J3*%
X174750000Y-133720000D03*
D26*
X174750000Y-145120000D03*
X174750000Y-136820000D03*
%TD*%
D17*
%TO.C,C14*%
X137250000Y-114750000D03*
X142250000Y-114750000D03*
%TD*%
%TO.C,C4*%
X115000000Y-73000000D03*
X120000000Y-73000000D03*
%TD*%
D27*
%TO.C,SW1*%
X161000000Y-148500000D03*
X167500000Y-148500000D03*
X161000000Y-153000000D03*
X167500000Y-153000000D03*
%TD*%
D28*
%TO.C,J6*%
X123500000Y-125975000D03*
D29*
X123500000Y-128515000D03*
X123500000Y-131055000D03*
%TD*%
D28*
%TO.C,J5*%
X174000000Y-67000000D03*
D29*
X174000000Y-64460000D03*
X174000000Y-61920000D03*
%TD*%
D28*
%TO.C,J8*%
X168250000Y-130975000D03*
D29*
X168250000Y-133515000D03*
%TD*%
D28*
%TO.C,J4*%
X123500000Y-61975000D03*
D29*
X123500000Y-64515000D03*
X123500000Y-67055000D03*
%TD*%
D28*
%TO.C,J7*%
X174000000Y-131025000D03*
D29*
X174000000Y-128485000D03*
X174000000Y-125945000D03*
%TD*%
M02*
