M48
; DRILL file {KiCad 9.0.0} date 2025-04-21T16:10:47+0100
; FORMAT={-:-/ absolute / inch / decimal}
; #@! TF.CreationDate,2025-04-21T16:10:47+01:00
; #@! TF.GenerationSoftware,Kicad,Pcbnew,9.0.0
; #@! TF.FileFunction,Plated,1,2,PTH
FMAT,2
INCH
; #@! TA.AperFunction,Plated,PTH,ViaDrill
T1C0.0157
; #@! TA.AperFunction,Plated,PTH,ComponentDrill
T2C0.0236
; #@! TA.AperFunction,Plated,PTH,ComponentDrill
T3C0.0295
; #@! TA.AperFunction,Plated,PTH,ComponentDrill
T4C0.0315
; #@! TA.AperFunction,Plated,PTH,ComponentDrill
T5C0.0354
; #@! TA.AperFunction,Plated,PTH,ComponentDrill
T6C0.0394
; #@! TA.AperFunction,Plated,PTH,ComponentDrill
T7C0.0433
; #@! TA.AperFunction,Plated,PTH,ComponentDrill
T8C0.0480
; #@! TA.AperFunction,Plated,PTH,ComponentDrill
T9C0.0559
; #@! TA.AperFunction,Plated,PTH,ComponentDrill
T10C0.0563
; #@! TA.AperFunction,Plated,PTH,ComponentDrill
T11C0.0630
; #@! TA.AperFunction,Plated,PTH,ComponentDrill
T12C0.0709
; #@! TA.AperFunction,Plated,PTH,ComponentDrill
T13C0.0866
%
G90
G05
T1
X4.9902Y-5.0591
X4.9909Y-3.2374
X4.9953Y-2.8689
X5.0591Y-3.4843
X5.0689Y-3.0709
X5.0886Y-5.0492
X5.128Y-3.3858
X5.1969Y-3.3858
X5.2953Y-3.061
X5.2953Y-5.7283
X5.3248Y-3.4744
X5.3264Y-2.9217
X5.3445Y-5.1476
X5.427Y-5.0159
X5.4331Y-3.2087
X5.4528Y-4.7638
X5.4663Y-5.0159
X5.4724Y-5.4429
X5.4724Y-5.5118
X5.5118Y-3.1004
X5.5217Y-4.1142
X5.5354Y-4.6457
X5.6102Y-4.439
X5.6152Y-4.1486
X5.6496Y-5.187
X5.7185Y-5.187
X5.8169Y-4.626
X5.9055Y-3.4941
X5.9055Y-5.1969
X5.9449Y-4.2224
X5.9641Y-4.6265
X5.9744Y-5.0492
X5.9843Y-4.3406
X6.1319Y-2.1752
X6.2106Y-4.5079
X6.2106Y-4.5531
X6.2111Y-4.4301
X6.2303Y-2.4311
X6.2303Y-4.7146
X6.2303Y-4.7441
X6.25Y-2.5591
X6.2697Y-3.4252
X6.2697Y-4.498
X6.3091Y-4.8819
X6.3484Y-3.2972
X6.3484Y-3.3465
X6.3583Y-4.8425
X6.3681Y-2.5591
X6.4272Y-2.9331
X6.4272Y-2.9724
X6.437Y-4.8425
X6.4961Y-4.6161
X6.5059Y-3.1594
X6.5256Y-3.3957
X6.5354Y-3.0315
X6.6043Y-3.5138
X6.6142Y-3.1102
X6.624Y-4.9016
X6.6339Y-4.3996
X6.6339Y-4.4587
X6.6437Y-3.3563
X6.6535Y-3.5433
X6.7028Y-3.5138
X6.7421Y-3.5433
X6.7717Y-4.7539
X6.8012Y-3.4449
X6.8701Y-4.4587
X6.9587Y-3.5035
X7.1358Y-5.5512
T2
X5.2222Y-5.0413
X5.2813Y-5.0413
X5.425Y-2.2539
X5.4429Y-5.2854
X5.4841Y-2.2539
X5.502Y-5.2854
X5.9744Y-2.9429
X6.0335Y-2.9429
X6.4594Y-2.7657
X6.5184Y-2.7657
X6.5354Y-4.872
X6.5354Y-4.9311
X6.811Y-5.9136
X6.811Y-5.9726
X7.0374Y-3.248
X7.0374Y-3.3071
T3
X5.4118Y-4.0
X5.4618Y-4.0
X5.5118Y-4.0
T4
X4.5276Y-2.7362
X4.5276Y-2.874
X4.5276Y-3.0118
X4.7244Y-2.7362
X4.7244Y-2.874
X4.7244Y-3.0118
X5.4035Y-4.5177
X5.6004Y-2.7264
X5.6004Y-2.8642
X5.6004Y-3.002
X5.6004Y-3.1496
X5.6004Y-4.5177
X5.7972Y-2.7264
X5.7972Y-2.8642
X5.7972Y-3.002
X5.7972Y-3.1496
X5.9154Y-4.7539
X6.1122Y-4.7539
X6.2106Y-5.5118
X6.2106Y-5.7087
X6.2598Y-3.9272
X6.2598Y-4.124
X6.4567Y-4.5669
X6.6535Y-4.5669
T5
X6.0236Y-5.9154
X6.2205Y-5.8169
X6.2205Y-6.0138
X6.4665Y-5.0476
X6.4665Y-5.1476
T6
X4.8622Y-2.44
X4.8622Y-2.54
X4.8622Y-2.64
X4.8622Y-4.9596
X4.8622Y-5.0596
X4.8622Y-5.1596
X4.9705Y-2.5591
X4.9705Y-4.1339
X4.9705Y-5.7087
X5.0689Y-2.5591
X5.0689Y-4.1339
X5.0689Y-5.7087
X5.1673Y-2.5591
X5.1673Y-4.1339
X5.1673Y-5.7087
X5.7579Y-2.5591
X5.7579Y-4.1339
X5.7579Y-5.7087
X5.8563Y-2.5591
X5.8563Y-4.1339
X5.8563Y-5.7087
X5.9547Y-2.5591
X5.9547Y-4.1339
X5.9547Y-5.7087
X6.5453Y-2.5591
X6.5453Y-4.1339
X6.624Y-5.1565
X6.624Y-5.2565
X6.6437Y-2.5591
X6.6437Y-4.1339
X6.7421Y-2.5591
X6.7421Y-4.1339
X6.8504Y-2.4378
X6.8504Y-2.5378
X6.8504Y-2.6378
X6.8504Y-4.9585
X6.8504Y-5.0585
X6.8504Y-5.1585
T7
X6.3386Y-5.8465
X6.3386Y-6.0236
X6.5945Y-5.8465
X6.5945Y-6.0236
T8
X6.4665Y-5.2646
X6.8799Y-5.2646
T9
X6.4665Y-5.3866
X6.8799Y-5.3866
T10
X6.4665Y-5.7134
X6.8799Y-5.7134
T11
X4.626Y-3.248
X5.4921Y-3.6319
X5.6988Y-3.435
X6.25Y-3.7795
T13
X4.9705Y-4.4606
X4.9705Y-4.6417
X4.9705Y-4.8228
X5.1673Y-4.4606
X5.1673Y-4.6417
X5.1673Y-4.8228
T6
G00X6.7028Y-2.9921
M15
G01X6.7028Y-2.9134
M16
G05
G00X6.8602Y-2.7677
M15
G01X6.7815Y-2.7677
M16
G05
G00X6.939Y-2.9921
M15
G01X6.939Y-2.9134
M16
G05
T12
G00X4.8957Y-2.2894
M15
G01X4.8957Y-2.2776
M16
G05
G00X4.8957Y-3.8642
M15
G01X4.8957Y-3.8524
M16
G05
G00X4.8957Y-5.439
M15
G01X4.8957Y-5.4272
M16
G05
G00X5.2421Y-2.2894
M15
G01X5.2421Y-2.2776
M16
G05
G00X5.2421Y-3.8642
M15
G01X5.2421Y-3.8524
M16
G05
G00X5.2421Y-5.439
M15
G01X5.2421Y-5.4272
M16
G05
G00X5.6831Y-2.2894
M15
G01X5.6831Y-2.2776
M16
G05
G00X5.6831Y-3.8642
M15
G01X5.6831Y-3.8524
M16
G05
G00X5.6831Y-5.439
M15
G01X5.6831Y-5.4272
M16
G05
G00X6.0295Y-2.2894
M15
G01X6.0295Y-2.2776
M16
G05
G00X6.0295Y-3.8642
M15
G01X6.0295Y-3.8524
M16
G05
G00X6.0295Y-5.439
M15
G01X6.0295Y-5.4272
M16
G05
G00X6.4705Y-2.2894
M15
G01X6.4705Y-2.2776
M16
G05
G00X6.4705Y-3.8642
M15
G01X6.4705Y-3.8524
M16
G05
G00X6.8169Y-2.2894
M15
G01X6.8169Y-2.2776
M16
G05
G00X6.8169Y-3.8642
M15
G01X6.8169Y-3.8524
M16
G05
M30
